<svg width="213" height="42" viewBox="0 0 213 42" fill="none" xmlns="http://www.w3.org/2000/svg">
<path d="M7.8125 1.63636L16.5128 15.8587H16.7969L25.4972 1.63636H31.8537L20.5256 19.8182L31.9247 38H25.5327L16.7969 23.973H16.5128L7.77699 38H1.38494L12.9794 19.8182L1.45597 1.63636H7.8125ZM36.8697 38V10.7273H41.9656V15.1662H42.3029C42.8711 13.6629 43.8003 12.491 45.0906 11.6506C46.3808 10.7983 47.9255 10.3722 49.7248 10.3722C51.5477 10.3722 53.0747 10.7983 54.3058 11.6506C55.5487 12.5028 56.466 13.6747 57.0579 15.1662H57.342C57.993 13.7102 59.0288 12.5502 60.4492 11.6861C61.8697 10.8101 63.5624 10.3722 65.5273 10.3722C68.0013 10.3722 70.0195 11.1475 71.582 12.6982C73.1564 14.2488 73.9435 16.5866 73.9435 19.7116V38H68.6346V20.2088C68.6346 18.3622 68.1315 17.0246 67.1254 16.196C66.1192 15.3674 64.9177 14.9531 63.521 14.9531C61.7927 14.9531 60.4492 15.4858 59.4904 16.5511C58.5316 17.6046 58.0522 18.96 58.0522 20.6172V38H52.761V19.8714C52.761 18.3918 52.2994 17.2022 51.3761 16.3026C50.4528 15.4029 49.2513 14.9531 47.7717 14.9531C46.7655 14.9531 45.8363 15.2195 44.984 15.7521C44.1436 16.273 43.463 17.0009 42.9421 17.9361C42.4331 18.8712 42.1786 19.9543 42.1786 21.1854V38H36.8697ZM92.8134 38.5504C90.1264 38.5504 87.8122 37.9763 85.8709 36.8281C83.9415 35.6681 82.45 34.0405 81.3965 31.9453C80.3548 29.8383 79.834 27.3703 79.834 24.5412C79.834 21.7476 80.3548 19.2855 81.3965 17.1548C82.45 15.0241 83.9178 13.361 85.7999 12.1655C87.6938 10.9699 89.9074 10.3722 92.4405 10.3722C93.9793 10.3722 95.4708 10.6267 96.915 11.1357C98.3591 11.6446 99.6552 12.4437 100.803 13.5327C101.952 14.6217 102.857 16.0362 103.52 17.7763C104.183 19.5045 104.514 21.6056 104.514 24.0795V25.9616H82.8347V21.9844H99.312C99.312 20.5876 99.0279 19.3506 98.4597 18.2734C97.8915 17.1844 97.0925 16.3262 96.0627 15.6989C95.0447 15.0715 93.8491 14.7578 92.476 14.7578C90.9846 14.7578 89.6825 15.1248 88.5698 15.8587C87.4689 16.5807 86.6167 17.5277 86.013 18.6996C85.4211 19.8596 85.1252 21.1203 85.1252 22.4815V25.5888C85.1252 27.4117 85.4448 28.9624 86.084 30.2408C86.735 31.5192 87.6406 32.4957 88.8006 33.1705C89.9606 33.8333 91.316 34.1648 92.8667 34.1648C93.8728 34.1648 94.7902 34.0227 95.6188 33.7386C96.4474 33.4427 97.1635 33.0047 97.7672 32.4247C98.3709 31.8447 98.8326 31.1286 99.1522 30.2763L104.177 31.1818C103.775 32.6615 103.052 33.9576 102.011 35.0703C100.981 36.1712 99.6848 37.0294 98.1223 37.6449C96.5717 38.2486 94.802 38.5504 92.8134 38.5504ZM120.614 38.5327C118.413 38.5327 116.448 37.9704 114.719 36.8459C113.003 35.7095 111.654 34.0937 110.671 31.9986C109.701 29.8916 109.215 27.3643 109.215 24.4169C109.215 21.4695 109.706 18.9482 110.689 16.853C111.683 14.7578 113.045 13.1539 114.773 12.0412C116.501 10.9285 118.46 10.3722 120.65 10.3722C122.343 10.3722 123.704 10.6562 124.734 11.2244C125.775 11.7808 126.58 12.4318 127.148 13.1776C127.728 13.9233 128.178 14.5803 128.498 15.1484H128.817V1.63636H134.126V38H128.942V33.7564H128.498C128.178 34.3364 127.717 34.9993 127.113 35.745C126.521 36.4908 125.704 37.1418 124.663 37.6982C123.621 38.2545 122.272 38.5327 120.614 38.5327ZM121.786 34.005C123.313 34.005 124.603 33.6025 125.657 32.7976C126.722 31.9808 127.527 30.8504 128.072 29.4062C128.628 27.9621 128.906 26.2812 128.906 24.3636C128.906 22.4697 128.634 20.8125 128.089 19.392C127.545 17.9716 126.746 16.8648 125.692 16.0717C124.639 15.2786 123.337 14.8821 121.786 14.8821C120.188 14.8821 118.857 15.2964 117.791 16.125C116.726 16.9536 115.921 18.084 115.376 19.5163C114.844 20.9486 114.577 22.5644 114.577 24.3636C114.577 26.1866 114.85 27.826 115.394 29.282C115.939 30.7379 116.744 31.892 117.809 32.7443C118.886 33.5848 120.212 34.005 121.786 34.005ZM141.704 38V10.7273H147.013V38H141.704ZM144.385 6.51918C143.461 6.51918 142.668 6.21141 142.006 5.59588C141.354 4.96851 141.029 4.22277 141.029 3.35866C141.029 2.48272 141.354 1.73698 142.006 1.12145C142.668 0.49408 143.461 0.180397 144.385 0.180397C145.308 0.180397 146.095 0.49408 146.746 1.12145C147.409 1.73698 147.741 2.48272 147.741 3.35866C147.741 4.22277 147.409 4.96851 146.746 5.59588C146.095 6.21141 145.308 6.51918 144.385 6.51918ZM162.092 38.6037C160.363 38.6037 158.801 38.2841 157.404 37.6449C156.007 36.9938 154.901 36.0528 154.084 34.8217C153.279 33.5907 152.876 32.0814 152.876 30.294C152.876 28.7552 153.172 27.4886 153.764 26.4943C154.356 25.5 155.155 24.7128 156.161 24.1328C157.167 23.5528 158.292 23.1148 159.535 22.8189C160.778 22.523 162.044 22.2981 163.335 22.1442C164.968 21.9548 166.294 21.8009 167.312 21.6825C168.33 21.5523 169.07 21.3452 169.531 21.0611C169.993 20.777 170.224 20.3153 170.224 19.6761V19.5518C170.224 18.0012 169.786 16.7997 168.91 15.9474C168.046 15.0952 166.755 14.669 165.039 14.669C163.252 14.669 161.843 15.0656 160.813 15.8587C159.795 16.6399 159.091 17.5099 158.7 18.4688L153.711 17.3324C154.303 15.6752 155.167 14.3376 156.303 13.3196C157.451 12.2898 158.771 11.544 160.263 11.0824C161.754 10.6089 163.323 10.3722 164.968 10.3722C166.057 10.3722 167.211 10.5024 168.43 10.7628C169.661 11.0114 170.81 11.473 171.875 12.1477C172.952 12.8224 173.834 13.7872 174.521 15.0419C175.207 16.2848 175.55 17.9006 175.55 19.8892V38H170.366V34.2713H170.153C169.809 34.9579 169.295 35.6326 168.608 36.2955C167.921 36.9583 167.04 37.5088 165.962 37.9467C164.885 38.3847 163.595 38.6037 162.092 38.6037ZM163.246 34.3423C164.714 34.3423 165.968 34.0523 167.01 33.4723C168.063 32.8923 168.862 32.1347 169.407 31.1996C169.963 30.2526 170.241 29.2405 170.241 28.1634V24.6477C170.052 24.8371 169.685 25.0147 169.141 25.1804C168.608 25.3343 167.998 25.4704 167.312 25.5888C166.625 25.6953 165.956 25.7959 165.305 25.8906C164.654 25.9735 164.11 26.0445 163.672 26.1037C162.642 26.2339 161.701 26.4529 160.849 26.7607C160.008 27.0684 159.334 27.5123 158.825 28.0923C158.327 28.6605 158.079 29.4181 158.079 30.3651C158.079 31.679 158.564 32.6733 159.535 33.348C160.505 34.0109 161.742 34.3423 163.246 34.3423Z" fill="#EAAA00"/>
</svg>
