<?xml version="1.0" encoding="UTF-8"?>
<svg id="Layer_1" data-name="Layer 1" xmlns="http://www.w3.org/2000/svg" viewBox="0 0 545.4 60.78">
  <defs>
    <style>
      .cls-1 {
        fill: #f4aa00;
      }

      .cls-2 {
        fill: #fff;
      }
    </style>
  </defs>
  <path class="cls-1" d="m62.49,60.78c-.24,0-.47-.1-.64-.27l-20.57-20.99h-.25l-19.95,20.98c-.17.18-.41.28-.65.28H.91c-.81,0-1.21-.99-.63-1.56l29.2-28.84c.36-.36.36-.95,0-1.31L1.21,1.57c-.59-.57-.18-1.57.63-1.57h20.75c.24,0,.47.1.64.27l19.08,19.36h.12S61.65.27,61.65.27c.17-.17.4-.27.64-.27h18.68c.82,0,1.22,1.01.62,1.57l-28.19,26.82c-.37.36-.38.95-.01,1.32l30.01,29.51c.58.57.18,1.56-.63,1.56h-20.29Z"/>
  <path class="cls-2" d="m201.54,37.5c0-10.48.1-21.38.57-28.11h-.12c-4,11.08-11.52,28.57-20.96,50.49-.23.54-.76.9-1.35.9h-15.47c-.61,0-1.15-.37-1.36-.94-7.39-19.3-15.77-39.11-20.03-50.44h-.12c.61,7.06,1.35,18.88,1.35,29.23v20.68c0,.81-.66,1.48-1.47,1.48h-14.91c-.81,0-1.47-.66-1.47-1.48V1.48c0-.81.66-1.48,1.47-1.48h26.21c.58,0,1.11.35,1.34.89,8.05,18.45,15.38,34.57,17.78,42.76h.12c3.4-9.43,10.59-25.04,18.38-42.77.23-.53.76-.88,1.34-.88h26.34c.81,0,1.47.66,1.47,1.48v57.83c0,.81-.66,1.48-1.47,1.48h-16.17c-.81,0-1.47-.66-1.47-1.48v-21.8Z"/>
  <path class="cls-2" d="m310.68,48.96h-47.42c-.81,0-1.46-.65-1.46-1.46v-10.9c0-.81.66-1.47,1.47-1.47h28.49c.32,0,.58-.26.58-.58l3-10.64c0-.32-.26-.58-.58-.58h-31.5c-.81,0-1.46-.66-1.46-1.48v-8.56c0-.81.66-1.47,1.47-1.47h43.08c.81,0,1.47-.66,1.47-1.48l2-8.86c0-.81-.66-1.47-1.47-1.47h-64.9c-.81,0-1.46.65-1.46,1.46v57.84c0,.81.66,1.47,1.47,1.47h65.51c.7,0,1.3-.5,1.43-1.19l1.71-8.86c.18-.91-.51-1.76-1.43-1.76Z"/>
  <path class="cls-2" d="m327.17,1.48c0-.81.66-1.48,1.47-1.48h35.44c27.51,0,42.56,13.29,42.56,29.33,0,19.46-19.22,31.45-42.98,31.45h-35.01c-.81,0-1.47-.66-1.47-1.48V1.48Zm19.81,46.39c0,.81.66,1.48,1.47,1.48h12.59c15.97,0,24.6-6.7,24.6-19.62,0-11.24-7.9-18.22-24.35-18.37h-12.85c-.81,0-1.47.66-1.47,1.48v35.04Z"/>
  <path class="cls-2" d="m442.72,1.48v57.83c0,.81-.66,1.48-1.47,1.48h-16.88c-.81,0-1.47-.66-1.47-1.48V1.48c0-.81.66-1.48,1.47-1.48h16.88c.81,0,1.47.66,1.47,1.48Z"/>
  <path class="cls-2" d="m480.7,47.78l-6.3,12.2c-.25.49-.75.79-1.3.79h-17.02c-1.11,0-1.82-1.2-1.29-2.18L486.08.77c.26-.47.75-.77,1.29-.77h23.68c.53,0,1.01.28,1.27.74l32.88,57.83c.56.98-.15,2.21-1.27,2.21h-18.03c-.53,0-1.02-.29-1.28-.76l-6.75-12.27c-.26-.47-.75-.76-1.28-.76h-34.58c-.55,0-1.05.31-1.3.79Zm28.73-12.62c1.11,0,1.82-1.2,1.28-2.19-6.8-12.5-10.21-19.09-12.06-23.49h-.12c-1.72,4.27-5.64,12.67-11.19,23.51-.5.98.2,2.16,1.3,2.16h20.78Z"/>
</svg>