<?xml version="1.0" encoding="utf-8"?>
<!-- Generator: Adobe Illustrator 27.3.1, SVG Export Plug-In . SVG Version: 6.00 Build 0)  -->
<svg version="1.1" id="Layer_1" xmlns="http://www.w3.org/2000/svg" xmlns:xlink="http://www.w3.org/1999/xlink" x="0px" y="0px"
	 viewBox="0 0 349.8 349.8" style="enable-background:new 0 0 349.8 349.8;" xml:space="preserve">
<style type="text/css">
	.st0{fill:#FFFFFF;}
</style>
<g>
	<path class="st0" d="M349.8,38.9c-1.2,1.8-2.1,3.8-3.5,5.3c-2.9,3.2-6.9,4.7-10.8,3.2c-3.5-1.3-5.4-0.1-7.6,2.1
		c-2.9,2.8-5.9,5.3-9,7.8c-1.3,1.1-1.8,2.1-1.4,4c1.2,5.3-1.2,10.3-6.1,12.9c-1.8,0.9-2.4,1.9-2.4,3.9c0.1,5,0.1,10,0.1,15
		c0,0.2,0.1,0.4,0.3,0.9c8.2,0,16.4,0,25.1,0c0-1.3,0-2.5,0-3.7c0-8,0-15.9,0-23.9c0-2.4,0.7-4.4,3.5-4.4c2.6,0,3.5,1.9,3.5,4.2
		c0.1,10.4,0.1,20.7,0.1,31.1c0,2.6-1.4,4-4.1,4c-0.6,0-1.1,0-1.7,0c-32.9,0-65.8,0-98.7,0c-5.1,0-5.9-0.8-5.9-5.9
		c0-5.8,0-11.6,0-17.4c0-1.7-0.3-2.8-2-3.8c-6.1-3.4-8.1-10.6-4.7-16.4c3.3-5.7,10.2-7.5,16.4-4.4c1,0.5,2.7,0.4,3.8-0.1
		c2.5-1.2,4.6-2.9,7-4.2c3.8-2,6.4-4.1,6.8-9.2c0.4-6.1,6.4-9.8,12.7-9.2c5.8,0.5,10.6,5.5,10.4,11.5c-0.1,2.6,0.8,3.9,2.9,5
		c3.7,2,7.3,4.2,10.8,6.5c1.5,0.9,2.6,1.3,4.2,0.1c3.3-2.3,7-2.3,10.8-1.1c1.1,0.4,2.9,0.2,3.8-0.5c3.8-3,7.5-6.3,11.1-9.6
		c0.8-0.8,1.3-2.6,1.1-3.7c-1-5.1,0.2-9.8,4.6-12.3c4-2.3,3.9-5.2,3.3-8.9c-31.9,0-63.7,0-96,0c0,4.5,0,8.9,0,13.4
		c0,1.2,0.3,2.7-0.2,3.7c-0.7,1.2-2.1,2.9-3.1,2.8c-1.3-0.1-3.4-1.7-3.5-2.7c-0.3-7-0.3-14.1,0-21.1c0-1.1,1.8-2.3,3.1-3.1
		c0.6-0.4,1.8-0.1,2.7-0.1c32.8,0,65.6,0,98.3,0c5.2,0,6.1,0.9,6.1,6.2c0,0.8,0.1,1.6,0,2.4c-0.3,3.3,0,5.8,3.6,7.8
		c2.2,1.2,3.2,4.4,4.8,6.8C349.8,35.2,349.8,37.1,349.8,38.9z M302,94.1c0-6,0.1-11.8-0.1-17.5c0-0.7-0.9-1.7-1.6-2.2
		c-4.4-2.6-6.5-6.4-6.5-11.6c0-0.9-0.6-2.2-1.3-2.7c-4.8-3-9.7-5.9-14.6-8.8c-5.7,4.4-11.2,4-16.6-0.1c-4.5,2.8-8.9,5.4-13.2,8.2
		c-0.8,0.5-1.5,1.9-1.5,2.9c0.2,5.4-1.9,9.4-6.7,12.1c-0.8,0.4-1.7,1.4-1.7,2.1c-0.1,5.8-0.1,11.5-0.1,17.5c9.5,0,18.6,0,28.1,0
		c0-1.4,0-2.6,0-3.9c0-5.9,0-11.8,0-17.7c0-2.3,1-3.9,3.3-3.9c2.5-0.1,3.6,1.6,3.6,4c0,1,0,2,0,3.1c0,6.1,0,12.2,0,18.5
		C282.9,94.1,292.2,94.1,302,94.1z M305.8,68.7c2.6,0,5-2.4,5-5.1c0-2.7-2.5-5-5.1-4.9c-2.5,0.1-4.7,2.3-4.8,4.9
		C300.8,66.3,303.1,68.7,305.8,68.7z M337.8,30.9c-2.7,0.1-5,2.5-4.9,5.2c0.1,2.5,2.3,4.8,4.9,4.8c2.6,0,5-2.3,5-5
		C342.8,33.2,340.4,30.8,337.8,30.9z M239.6,63.6c-0.1-2.7-2.4-4.9-5.1-4.9c-2.7,0.1-4.9,2.5-4.8,5.2c0.1,2.6,2.4,4.7,4.9,4.7
		C237.3,68.6,239.7,66.2,239.6,63.6z M274.6,42.5c0-2.7-2.3-5-5-5c-2.7,0-4.9,2.3-4.8,5.1c0.1,2.7,2.1,4.7,4.7,4.8
		C272.3,47.4,274.6,45.2,274.6,42.5z"/>
	<path class="st0" d="M0,54.6c2.5-3.7,6.6-1.4,9.8-2.5c3.7-21.9,16.5-34.9,39-38.9c0-1.7,0-3.6,0-5.5c0-2.3,0.9-4.2,3.4-4.2
		c2.7,0,3.6,1.9,3.6,4.4c0,1.8,0,3.6,0,5.6c8.3,1,15.7,3.7,22.2,8.7c9,7,14.5,16.2,16.1,27.5c0.3,2.3,1.1,2.9,3.2,2.7
		c1.2-0.1,2.5-0.1,3.8,0c2.1,0.1,3.8,1.4,3.3,3.4c-0.3,1.4-2,2.9-3.4,3.3c-1.9,0.6-4,0.1-6.4,0.1c-1.2,10.3-5.1,19.2-12.3,26.4
		c-7.2,7.3-16.1,11.3-26.4,12.4c0,2.1,0,3.9,0,5.8c0,2.3-0.9,4.2-3.5,4.2c-2.5,0.1-3.4-1.7-3.6-4.1c-0.4-5.7-0.4-5.7-5.7-6.9
		C25,93,12.9,79.3,10.1,59.7C6.9,58.5,2.7,60.9,0,57.3C0,56.4,0,55.5,0,54.6z M87.1,52.4c0.7-14.8-15.6-31.2-31.3-31.5
		c0,1.9,0.1,3.8,0,5.7c-0.1,2.3-1.1,4.1-3.6,4c-2.4,0-3.3-1.7-3.4-3.9c-0.1-2,0-4,0-6C32,22.4,17.6,37,17.4,52.4c1.9,0,3.8,0,5.7,0
		c2.4,0,4.1,1,4.1,3.5c-0.1,2.5-1.8,3.5-4.2,3.4c-1.9,0-3.8,0-5.7,0c1.4,16.7,18.1,33.2,31.6,31.1c0-1.5,0-3.1,0-4.7
		c0-2.5,0.5-4.7,3.6-4.7c2.8,0.1,3.4,2.2,3.4,4.5c0,1.7,0,3.4,0,5c14.7,0.6,31.8-16.6,31.3-31.3c-2,0-4.1,0.1-6.1,0
		c-2.3-0.1-4-1.5-3.5-3.6c0.3-1.3,2.1-2.8,3.6-3.2C83,52,85.1,52.4,87.1,52.4z"/>
	<path class="st0" d="M47.5,333.8c-3.9-1.5-7.6-3.1-11.5-4.4c-0.8-0.3-2.3,0.5-3.1,1.2c-6,5.7-6,5.7-11.8-0.2
		c-2.1-2.1-4.2-4.2-6.3-6.3c-3.1-3.1-3.1-4.5,0.1-7.6c1.1-1,2.4-1.7,3.1-2.3c-2-4.7-3.5-8.5-5.3-12.2c-0.4-0.8-1.8-1.6-2.8-1.5
		c-9.6,0.5-8.1-2.4-8.1-8.6c0-3.1,0-6.1,0-9.2c0-3.8,1.1-4.8,4.9-4.8c1.6,0,3.2,0,4.7,0c1.8-4.5,3.5-8.8,5.6-13.9
		c-1.3-1.1-3-2.4-4.6-3.9c-1.9-1.8-1.9-3.8,0-5.7c3.4-3.4,6.8-6.8,10.1-10.2c2-2,4-2,5.9,0c1.4,1.5,2.7,3.1,3.9,4.4
		c4.6-1.9,8.7-3.6,13.2-5.5c0-1,0-2.4,0-3.7c0-35.3,0-70.6,0-105.9c0-5.5,0.5-6,6.1-6c15,0,30.1,0,45.1,0c2.6,0,5.1,0.2,5,3.6
		c-0.1,3.1-2.5,3.4-4.9,3.3c-14.6,0-29.1,0-44,0c0,52.2,0,104.3,0,156.6c81,0,162.1,0,243.6,0c0-52.1,0-104.1,0-156.6
		c-1.1,0-2.3,0-3.6,0c-10.2,0-20.5,0-30.7,0c-2.5,0-4.8-0.4-4.8-3.5c0-3.1,2.2-3.5,4.8-3.5c12.3,0,24.6,0,36.9,0
		c3.8,0,4.9,1.1,4.9,4.9c0,53.6,0,107.3,0,160.9c0,4-1.2,5-5.5,5c-29.7,0-59.4,0-89.1,0c-1.3,0-2.7,0-4.2,0c0,13.7,0,27.1,0,40.9
		c4.9,0,9.7,0,14.4,0c2.5,0,4.9,0.3,5,3.3c0.1,3.1-2.3,3.7-5,3.7c-29.8,0-59.7,0-89.5,0c-0.3,0-0.7,0-1,0c-2.4-0.1-4-1.1-3.9-3.7
		c0.1-2.4,1.7-3.2,4-3.2c5.6,0,11.1,0,16.9,0c0-13.7,0-27.1,0-40.7c-0.9-0.1-1.8-0.2-2.6-0.2c-12.9,0-25.7,0-38.6-0.1
		c-2.1,0-3.4,0.4-3.7,2.8c-0.2,1.4-0.6,3-1.5,4.2c-2.9,3.9-1.1,6.3,1.9,9.1c4.5,4.1,4.4,4.9,0,9.3c-2.7,2.7-5.3,5.3-7.9,8
		c-2.1,2.2-4.2,2.4-6.5,0.2c-1.6-1.6-3.1-4.1-5-4.4c-1.8-0.3-3.9,2.1-6.1,2.6c-4.8,1.2-6.3,3.9-5.8,8.7c0.5,4.3-1,5.3-5.4,5.4
		c-4.1,0-8.2,0-12.3,0c-3.6,0-4.7-1.1-4.8-4.7c0-1.8-0.1-3.6-0.1-5.5C47.6,334,47.5,333.8,47.5,333.8z M153.3,298.6
		c0,13.7,0,27,0,40.5c14.9,0,29.6,0,44.4,0c0-13.6,0-27,0-40.5C182.8,298.6,168.1,298.6,153.3,298.6z M63.3,337c0-2.3,0.1-4.2,0-6.2
		c-0.1-2.5,1-3.9,3.4-4.8c4.5-1.9,8.9-4,13.2-6.2c2.1-1.1,3.9-1.2,5.5,0.6c1.4,1.6,2.8,3.3,4.2,5c2.5-2.6,4.3-4.5,6.9-7.1
		c-1.6-1.2-3.2-2.5-4.8-3.8c-2.4-2-2.7-4.1-1-6.9c1.6-2.7,2.6-5.7,4-8.9c-1.6-0.1-2.6-0.1-3.6-0.2c-3.6-0.6-5.7,0.6-7.5,4.2
		c-5.9,11.5-19.4,17.4-31.8,14.6c-11.9-2.7-21.2-12.2-23.1-23.8c-2.1-12.7,3.5-24.6,14.4-31.1c1-0.6,2.3-1.7,2.4-2.8
		c0.3-2.7,0.1-5.4,0.1-8.8c-2.5,1-4.6,1.7-6.6,2.7c-7.1,3.6-7,3.6-13-1.8c-0.1-0.1-0.4-0.1-0.1,0c-2.1,2.1-4,4-6.4,6.3
		c1.1,0.9,2.3,1.9,3.6,2.9c2.2,1.8,2.2,3.7,0.9,6.3c-2.2,4.6-3.9,9.4-5.6,14.2c-0.8,2.3-1.9,3.5-4.4,3.4c-1.6,0-3.3,0-4.9,0
		c0,3.2,0,5.9,0,8.7c1.3,0,2.3,0,3.4,0c5.2,0,5.1,0.1,6.6,4.9c0.9,3,2.1,6,3.6,8.8c3.7,7,3.8,7-1.3,12.7c-0.1,0.2-0.1,0.4-0.1,0.2
		c2,2,3.9,3.9,6.3,6.3c0.7-0.9,1.6-2,2.4-3.1c2.2-2.9,4.5-2.8,7.7-1.1c3.8,1.9,8,3.3,12.1,4.3c3.2,0.8,4.9,2.1,4.6,5.5
		c-0.1,1.5,0,3.1,0,4.8C57.6,337,60.2,337,63.3,337z M77.9,298.4c-1.5,0-2.6,0-3.8,0c-7.9,0-15.7,0-23.6,0c-3.8,0-4.8-1.1-4.9-4.9
		c0-2.8,0-5.7,0-8.5c0-5.1,0-10.1,0-15.4c-7.4,3.8-11.6,13.4-10.1,22.5c1.5,9.3,9.4,17.1,19,18.6C63.9,312.1,73.3,307.4,77.9,298.4z
		"/>
	<path class="st0" d="M252.2,266.7c6.6,0,13.1,0,19.8,0c0-35.8,0-71.5,0-107.6c-6.7,0-13.4,0-20.1,0c-2.5,0-4.4-0.8-4.4-3.6
		c0-2.3,1.6-3.4,3.9-3.4c8,0,15.9,0,23.9,0c2.7,0,3.9,1.4,4.1,4c0,0.7,0,1.4,0,2c0,36.4,0,72.9,0,109.3c0,5.5-0.8,6.3-6.3,6.3
		c-65.5,0-130.9,0-196.4,0c-5.7,0-6.3-0.6-6.3-6.2c0-36.4,0-72.9,0-109.3c0-5.6,0.5-6.1,6-6.1c2.6,0,5.2,0,7.9,0
		c2.3,0,3.8,1.2,3.8,3.4c0,2.3-1.5,3.5-3.8,3.5c-2.1,0-4.3,0-6.7,0c0,35.9,0,71.6,0,107.7c6.5,0,12.9,0.1,19.4-0.1
		c0.6,0,1.5-1.6,1.8-2.7c2.9-9.6,8.8-16.3,19.1-17.7c3.6-0.5,5.4-1.9,7.3-4.7c9.4-13.5,27.9-13,36.5,0.9c1.3,2.1,2.1,4.3-0.4,6
		c-2.6,1.7-4.1,0-5.5-2.1c-7.1-10.6-20.4-9.9-26.2,1.4c1.2,0.8,2.8,1.3,3.5,2.5c0.8,1.3,1.6,3.4,1.1,4.7c-0.8,2.1-2.8,1.9-4.9,1.1
		c-3.2-1.2-6.6-2.8-9.9-2.8c-6.9,0.1-12.2,5.7-13.7,13.3c46.3,0,92.6,0,138.8,0c0.5-9.5-11.8-16.6-20.9-12c-1,0.5-2,1.6-3,1.6
		c-1.5,0-3.5-0.3-4.3-1.2c-0.6-0.8-0.2-3,0.5-4.1c0.8-1.2,2.5-1.9,3.8-2.8c-2.8-9-14.8-12.1-22.4-5.7c-1.5,1.2-2.6,2.8-3.7,4.4
		c-1.4,2-3,3.4-5.4,1.8c-2.2-1.4-1.9-3.3-0.7-5.4c6.5-11.9,22.3-15.1,32.5-6.3c2.8,2.4,4.1,6.6,7.1,8.5c2.8,1.8,7.1,1.2,10.4,2.6
		c6.8,2.8,10.9,8.4,13,15.3C251.6,264.4,251.9,265.5,252.2,266.7z"/>
	<path class="st0" d="M141.3,127.8c0-13.1-0.3-26.2,0.1-39.3C142,67,152,50.9,170.7,40.2c2.6-1.5,5-1.6,7.7-0.1
		c18.7,10.4,29.3,26.3,29.8,47.7c0.6,27.5,0.2,55.1,0.2,82.7c0,3.9-1.1,5-5.1,5c-18.9,0-37.8,0-56.7,0c-4.2,0-5.2-1-5.2-5.3
		C141.3,156.1,141.3,141.9,141.3,127.8z M201.2,168.1c0.1-0.7,0.2-1.1,0.2-1.6c0-26.3,0.4-52.6-0.2-78.9c-0.4-17.3-8.8-30.7-23.5-40
		c-2.3-1.4-4-1.3-6.2,0.1c-15,9.7-23,23.4-23.2,41.3c-0.3,25.3-0.1,50.6-0.1,75.8c0,1.1,0.1,2.2,0.2,3.3
		C166.2,168.1,183.7,168.1,201.2,168.1z"/>
	<path class="st0" d="M160,194.7c9.4,0,18.6,0,27.8-0.1c0.7,0,1.8-1.1,2.1-1.9c0.7-2.5,1.1-5.1,1.7-7.6c0.5-2.3,1.8-3.9,4.3-3.3
		c2.5,0.6,3,2.4,2.5,4.7c-0.8,3.9-1.6,7.8-2.4,11.7c-0.5,2.3-1.8,3.5-4.3,3.5c-11.3,0-22.5,0-33.8,0c-2.2,0-3.7-0.7-4.2-3
		c-0.9-4.1-1.8-8.2-2.6-12.3c-0.4-2.1,0.1-4,2.5-4.5c2.5-0.5,3.8,0.8,4.3,3.2C158.5,188.1,159.2,191.3,160,194.7z"/>
	<path class="st0" d="M226,163.9c0-6.4,0.3-12.5-0.1-18.4c-0.3-3.9-2.8-7.2-6.1-9.5c-2-1.4-3.7-3.2-1.9-5.6c1.9-2.6,4.2-1.4,6.2,0.1
		c6.1,4.7,9,11,9.1,18.6c0.1,6.6,0.1,13.2,0,19.8c-0.1,4.5-2.5,5.9-6.5,3.7c-3.5-2-6.9-4-10.3-6c-2-1.2-3.6-2.7-2.2-5.2
		c1.5-2.6,3.7-2.1,5.9-0.8C222.1,161.6,223.9,162.6,226,163.9z"/>
	<path class="st0" d="M123,164c2.6-1.5,4.7-2.7,6.9-3.9c1.9-1.1,3.8-1.2,5.1,0.8c1.3,2.1,0.6,3.9-1.5,5.2c-3.9,2.3-7.8,4.7-11.8,6.8
		c-3.1,1.7-5.5,0.2-5.6-3.2c-0.1-7.7-0.3-15.5,0.1-23.2c0.4-6.9,3.9-12.5,9.6-16.5c1.8-1.3,3.9-1.9,5.4,0.1c1.6,2.1,0.8,4-1.3,5.5
		c-4.9,3.5-7.1,8.4-7,14.3C123.1,154.5,123,159,123,164z"/>
	<path class="st0" d="M178.3,226.7c0,3,0,5.9,0,8.9c0,2.4-1,4.1-3.5,4.1c-2.6,0-3.5-1.8-3.4-4.1c0-5.9,0-11.8,0-17.7
		c0-2.3,0.8-4.1,3.4-4.1c2.6,0,3.5,1.8,3.5,4.1C178.3,220.8,178.3,223.7,178.3,226.7z"/>
	<path class="st0" d="M153.4,218.2c0-1.8-0.1-3.6,0-5.5c0.1-2.2,1.2-4.1,3.5-3.6c1.3,0.3,3.2,2.1,3.3,3.4c0.4,3.9,0.4,8,0,11.9
		c-0.1,1.3-2.2,2.3-3.4,3.5c-1.1-1.2-2.9-2.2-3.3-3.6C153,222.4,153.4,220.3,153.4,218.2C153.4,218.2,153.4,218.2,153.4,218.2z"/>
	<path class="st0" d="M196.1,218.2c0,2,0.4,4.2-0.1,6.1c-0.4,1.4-2.1,2.4-3.3,3.6c-1.2-1.2-3.2-2.2-3.3-3.5c-0.4-3.9-0.4-8,0-11.9
		c0.1-1.3,1.9-3,3.3-3.4c2-0.5,3.3,1.1,3.4,3.3C196.2,214.3,196.1,216.3,196.1,218.2z"/>
	<path class="st0" d="M179.7,282.7c0,2.8-2,4.9-4.9,5c-2.8,0-5.1-2.1-5.1-4.8c0-2.7,2.2-5,5-5C177.5,277.8,179.6,279.9,179.7,282.7z
		"/>
	<path class="st0" d="M103.9,155.6c0,2.5-1.9,4.7-4.5,4.6c-2.6-0.1-4.2-1.6-4.5-4.2c-0.2-2.4,1.9-4.7,4.3-4.8
		C101.8,151,103.9,153,103.9,155.6z"/>
	<path class="st0" d="M250.8,131.2c-0.1,2.5-2.2,4.6-4.7,4.3c-2.6-0.2-4.2-1.7-4.3-4.4c-0.1-2.5,2-4.6,4.5-4.6
		C248.8,126.5,250.8,128.7,250.8,131.2z"/>
	<path class="st0" d="M32.6,55.9c0-11,8.7-19.8,19.7-19.8c10.9,0,19.7,8.8,19.7,19.8c0,10.9-8.9,19.8-19.7,19.8
		C41.5,75.7,32.6,66.8,32.6,55.9z M65,55.8C65,48.7,59.3,43,52.3,43c-7,0-12.7,5.8-12.7,12.9c0,7,5.8,12.8,12.8,12.8
		C59.4,68.7,65.1,62.9,65,55.8z"/>
	<path class="st0" d="M189.9,88.1c-0.1,8.3-7.1,15.1-15.4,15c-8.3-0.1-15.1-7-15-15.4c0.1-8.4,6.9-15.1,15.3-15
		C183.3,72.9,190,79.7,189.9,88.1z M166.6,87.9c0,4.5,3.7,8.3,8.2,8.2c4.4-0.1,8.2-3.9,8.1-8.4c-0.1-4.4-3.7-7.9-8.1-8
		C170.2,79.7,166.6,83.3,166.6,87.9z"/>
	<path class="st0" d="M52.8,51.1c2.6,0.2,4.6,2.6,4.4,5.1c-0.2,2.7-2.7,4.8-5.4,4.5c-2.6-0.3-4.5-2.5-4.3-5.2
		C47.7,52.8,50,50.8,52.8,51.1z"/>
</g>
</svg>
