<?xml version="1.0" encoding="utf-8"?>
<!-- Generator: Adobe Illustrator 27.3.1, SVG Export Plug-In . SVG Version: 6.00 Build 0)  -->
<svg version="1.1" id="Layer_1" xmlns="http://www.w3.org/2000/svg" xmlns:xlink="http://www.w3.org/1999/xlink" x="0px" y="0px"
	 viewBox="0 0 348.5 345.7" style="enable-background:new 0 0 348.5 345.7;" xml:space="preserve">
<style type="text/css">
	.st0{fill:#FFFFFF;}
</style>
<g>
	<path class="st0" d="M153.9,5.4c40.7,0,81.5,0,122.2,0c11.9,0,18.3,6.4,18.3,18.4c0,43.9,0,87.8,0.1,131.6c0,2,0.7,4.2,1.7,5.9
		c16.4,26.9,18.9,55,7.3,84.3c-0.9,2.3-0.8,3.7,1.1,5.5c3.8,3.5,7.4,7.3,11,10.9c3.1,3.1,4.1,6.8,3.1,11.2c-0.2,1.1,0.2,2.8,1,3.6
		c7.1,7.3,14.5,14.4,21.6,21.8c6.8,7.1,8.9,15.6,5.7,24.9c-3.1,9.2-9.7,14.7-19.3,16.4c-8.4,1.4-15.5-1.3-21.5-7.2c-7-7-14-14-21-21
		c-1.3-1.3-2.3-1.9-4.3-1.2c-4.1,1.4-7.7-0.1-10.8-3c-3.7-3.6-7.4-7.2-10.9-11c-1.7-1.9-3.1-2.1-5.5-1.1
		c-30.2,11.9-59.1,9.1-86.2-8.6c-15.2-9.9-26.1-23.6-33.1-40.3c-1.1-2.5-2.2-3.5-5.1-3.5c-32.5,0.1-65,0.1-97.5,0.1
		c-11.9,0-18.3-6.4-18.3-18.4c0-66.9,0-133.9,0-200.8c0-12.2,6.3-18.4,18.5-18.4C72.7,5.4,113.3,5.4,153.9,5.4z M129.3,232.3
		c-0.8-5.9-2-11.6-2.1-17.2c-0.6-39.3,16.4-68.4,51.4-86.7c1.9-1,2.5-2.1,2.5-4.1c-0.1-8.5-0.1-17.1,0-25.6c0-4.8,1.9-6.7,6.8-6.7
		c6,0,11.9,0,17.9,0c6.2,0,7.7,1.6,7.7,7.8c0,6.4,0,12.8,0,19.2c3.8,0,7.1,0,10.8,0c0-1.3,0-2.5,0-3.7c0-16.3,0-32.6,0-48.9
		c0-4.8,1.9-6.7,6.7-6.7c6.1,0,12.2,0,18.2,0c5.7,0,7.4,1.7,7.4,7.4c0,19.1,0,38.3,0,57.4c0,2.1,0.8,3,2.5,4.1
		c7.4,4.8,14.7,9.9,22,14.9c0.8,0.5,1.5,1.2,2.4,1.9c0-32.4,0-64.4,0-96.3c-86.5,0-172.7,0-259,0c0,1.3,0,2.3,0,3.3
		c0,57.5,0,115,0,172.5c0,6.1,1.6,7.7,7.9,7.7c31.2,0,62.3,0,93.5,0C126.9,232.3,128.1,232.3,129.3,232.3z M24.3,37.6
		c86.7,0,172.9,0,259,0c0.1-0.5,0.2-0.7,0.2-0.9c0-4,0-8.1,0-12.1c0-6.9-1.4-8.3-8.2-8.3c-81,0-162,0-243,0c-0.9,0-1.8,0-2.7,0
		c-3.2,0.2-5.3,2.2-5.4,5.4C24.3,26.9,24.3,32.1,24.3,37.6z M299.8,210.7c0-44.7-36.2-81-80.8-81.1c-44.7-0.1-81.2,36.1-81.3,80.6
		c-0.1,45,36.1,81.4,81.1,81.5C263.4,291.8,299.8,255.4,299.8,210.7z M291.6,302.8c7.3,7.3,14.6,14.6,21.9,21.9
		c6.1,6.1,14.5,6.4,20.1,0.7c5.6-5.6,5.3-13.9-0.8-20.1c-6.8-6.9-13.7-13.7-20.5-20.5c-0.5-0.5-1.2-1-1.5-1.3
		C304.4,290,298.1,296.3,291.6,302.8z M278,299.6c9.9-9.9,19.8-19.8,29.4-29.3c-3.5-3.5-7.2-7.1-10.9-10.8
		c-7.4,11.8-17.4,21.6-29.4,29.3C270.9,292.6,274.5,296.1,278,299.6z M245.6,122.8c0-17.7,0-35.1,0-52.3c-3.7,0-7.1,0-10.6,0
		c0,14.4,0,28.6,0,42.7c0,6.9,0,6.9,6.5,8.5C242.8,122,244.1,122.4,245.6,122.8z M191.9,122.7c3.2-0.7,6.2-1.3,9-2.1
		c0.7-0.2,1.5-1.3,1.6-2c0.1-5.2,0.1-10.5,0.1-15.8c-3.7,0-7.1,0-10.7,0C191.9,109.5,191.9,115.9,191.9,122.7z"/>
	<path class="st0" d="M89.2,124.2c12.1,0,23.8,0,35.5,0c6.1,0,7.9,1.8,7.7,7.8c-0.9,24.4-21.3,44.9-45.8,46.1
		c-25.3,1.2-47.4-16.8-50.8-41.3c-4-29.1,17.6-55.3,46.3-55.9c5.2-0.1,7.1,1.8,7.1,7C89.2,100,89.2,111.9,89.2,124.2z M53.5,152.3
		c5.1-5.1,9.7-9.8,14.4-14.5c3.4-3.4,8.1-6.3,9.8-10.5c1.7-4.2,0.6-9.7,0.6-14.6c0-6.7,0-13.5,0-20.2c-11.1,0.3-23.8,9.6-29,21.3
		C43.5,127.2,45.1,139.9,53.5,152.3z M121.2,135c-11.6,0-22.9,0-34.1,0.1c-0.9,0-2,0.9-2.7,1.6c-4.7,4.6-9.4,9.4-14.1,14
		c-3,3-6.1,5.8-9.4,9c12.7,8.5,25.4,10.2,38.6,4.1C111.7,158.4,118.7,148.6,121.2,135z"/>
	<path class="st0" d="M72.6,221.5c-10.2,0-20.5,0-30.7,0c-4.9,0-6.7-1.9-6.8-6.7c0-6.4,0-12.8,0-19.2c0-4.4,2-6.4,6.4-6.4
		c20.9,0,41.9,0,62.8,0c4.4,0,6.4,2,6.4,6.4c0,6.5,0,13.1,0,19.6c0,4.4-2,6.4-6.4,6.4C93.8,221.5,83.2,221.5,72.6,221.5z
		 M99.8,200.1c-18.1,0-35.9,0-53.6,0c0,3.7,0,7.1,0,10.4c18,0,35.7,0,53.6,0C99.8,207,99.8,203.6,99.8,200.1z"/>
	<path class="st0" d="M100,86.4c0-6.9,0-13.7,0-20.6c0-4.4,2-6.4,6.4-6.4c25.2-0.1,47.9,22.5,47.6,47.7c0,4.2-2,6.3-6.2,6.3
		c-13.9,0-27.9,0.1-41.8,0c-3.9,0-6-2.1-6-6.1C99.9,100.3,100,93.4,100,86.4z M142.5,102.5C141.6,87.4,125,71,111,71
		c0,10.5,0,21,0,31.5C121.6,102.5,131.9,102.5,142.5,102.5z"/>
	<path class="st0" d="M219,140.4c38.4,0,70,31.7,70,70.1c-0.1,38.8-31.5,70.3-70.1,70.3c-39.1,0-70.3-31.5-70.3-70.8
		C148.6,171.8,180.3,140.4,219,140.4z M180.8,165.3c-1.2,0.9-2.1,1.5-2.8,2.3c-17.3,17.6-22.7,38.2-15.5,61.9c0.7,2.2,1.6,2.9,4,2.9
		c34.9-0.1,69.7-0.1,104.6,0c2.3,0,3.3-0.6,4-2.8c7.5-21.6,1.2-46.8-15.7-62.2c-0.8-0.7-1.6-1.3-2.6-2.1c0,8.3,0,16,0,23.8
		c1.2,0,2.1,0,2.9,0c6,0,7.6,1.6,7.6,7.6c0,5.8,0,11.7,0,17.5c0,5.5-1.7,7.3-7.2,7.3c-14.2,0-28.3,0-42.5,0c-13.6,0-27.2,0-40.8,0
		c-4.7,0-6.6-1.9-6.6-6.5c0-6.4,0-12.8,0-19.2c0-4.7,1.9-6.6,6.5-6.7c1.3,0,2.6,0,4.1,0C180.8,181.1,180.8,173.4,180.8,165.3z
		 M268.5,243.3c-33.4,0-66.1,0-99.4,0c12.5,17.4,28.8,26.7,49.7,26.7C239.7,270,256,260.7,268.5,243.3z M256.5,200.1
		c-25.3,0-50.3,0-75.3,0c0,3.6,0,7,0,10.3c25.2,0,50.3,0,75.3,0C256.5,206.9,256.5,203.6,256.5,200.1z M224,188.9
		c0-12.6,0-24.9,0-37.3c-3.6,0-7,0-10.4,0c0,12.6,0,24.9,0,37.3C217.1,188.9,220.4,188.9,224,188.9z M235.2,153.5
		c0,12.2,0,23.8,0,35.4c3.6,0,6.9,0,10.5,0c0-10,0-19.9,0-29.8c0-0.6-0.5-1.6-1.1-1.8C241.6,156,238.5,154.8,235.2,153.5z
		 M202.4,188.9c0-11.8,0-23.3,0-35.5c-3.4,1.4-6.5,2.6-9.6,4c-0.5,0.2-1,1.2-1,1.8c-0.1,9.9,0,19.7,0,29.7
		C195.5,188.9,198.8,188.9,202.4,188.9z"/>
</g>
</svg>
