<svg width="20" height="20" viewBox="0 0 20 20" fill="none" xmlns="http://www.w3.org/2000/svg">
<path d="M3 2.5C3 2.36739 2.94732 2.24021 2.85355 2.14645C2.75979 2.05268 2.63261 2 2.5 2C2.36739 2 2.24021 2.05268 2.14645 2.14645C2.05268 2.24021 2 2.36739 2 2.5V17.5C2 17.6326 2.05268 17.7598 2.14645 17.8536C2.24021 17.9473 2.36739 18 2.5 18H17.5C17.6326 18 17.7598 17.9473 17.8536 17.8536C17.9473 17.7598 18 17.6326 18 17.5C18 17.3674 17.9473 17.2402 17.8536 17.1464C17.7598 17.0527 17.6326 17 17.5 17H16V5.5C15.9999 5.40592 15.9732 5.31378 15.923 5.23417C15.8729 5.15457 15.8013 5.09074 15.7165 5.05C15.6317 5.00927 15.5371 4.99329 15.4436 5.0039C15.3501 5.01452 15.2615 5.05129 15.188 5.11L10.453 8.897L7.248 7.066C7.1799 7.02705 7.10359 7.00468 7.02524 7.00068C6.9469 6.99669 6.86871 7.01118 6.797 7.043L3 8.731V2.5ZM3 9.825L6.972 8.06L10.252 9.934C10.339 9.9836 10.4389 10.0059 10.5388 9.99807C10.6386 9.99023 10.7338 9.95258 10.812 9.89L15 6.54V17H3V9.825Z" fill="black"/>
</svg>
