<?xml version="1.0" encoding="utf-8"?>
<!-- Generator: Adobe Illustrator 27.3.1, SVG Export Plug-In . SVG Version: 6.00 Build 0)  -->
<svg version="1.1" id="Layer_1" xmlns="http://www.w3.org/2000/svg" xmlns:xlink="http://www.w3.org/1999/xlink" x="0px" y="0px"
	 viewBox="0 0 349.8 349.8" style="enable-background:new 0 0 349.8 349.8;" xml:space="preserve">
<style type="text/css">
	.st0{fill:#FFFFFF;}
</style>
<g>
	<path class="st0" d="M0,172.9c1.7-2.8,3.1-5.9,5.1-8.4c24.6-30.9,53.2-57.3,87.6-77.1c22.6-13,46.8-21.8,73-23.6
		c24.1-1.6,47.1,3.1,69.2,12.6c31.6,13.5,58.7,33.7,82.7,58c10,10.1,19.1,21,28.4,31.8c5.2,6.1,5.1,11.2,0,17.5
		c-24.8,31.4-53.5,58.3-88.3,78.4c-27.5,15.9-56.8,25.5-88.9,24.1c-22-1-42.8-6.9-62.5-16.6c-41.4-20.3-74.5-50.5-102.9-86.4
		C2,181.4,1.1,179.1,0,177C0,175.6,0,174.2,0,172.9z M323.7,175.1c-1.3-1.5-2.2-2.7-3.2-3.7c-10.6-10.9-20.8-22.3-32-32.6
		c-21.7-19.7-45.8-35.9-73.9-45.4c-16.8-5.7-34-8.1-51.7-6.2c-22.6,2.5-43.1,10.8-62.4,22.4c-25.4,15.2-47.2,34.8-66.9,56.8
		c-2.5,2.8-4.8,5.6-7.5,8.8c6.8,7.3,13.2,14.6,20,21.5c22.5,22.7,47.3,42.3,76.9,55.1c14.8,6.4,30.2,10.6,46.4,11.4
		c24.7,1.2,47.4-5.7,69.1-16.8c24.4-12.6,45.5-29.6,64.7-49C310.2,190.1,316.8,182.6,323.7,175.1z"/>
	<path class="st0" d="M244,175.1c-0.2,38.2-31.2,69-69.2,68.9c-38.3-0.1-69.3-31.4-69-69.5c0.4-38.3,31.4-69,69.4-68.7
		C213.4,106.1,244.2,137.1,244,175.1z M128.8,174.9c-0.1,25.3,20.5,46,46,46.1c25.3,0.2,46-20.4,46.2-45.9
		c0.2-25.4-20.7-46.4-46.1-46.3C149.4,128.9,128.8,149.5,128.8,174.9z"/>
</g>
</svg>
