<?xml version="1.0" encoding="utf-8"?>
<!-- Generator: Adobe Illustrator 27.3.1, SVG Export Plug-In . SVG Version: 6.00 Build 0)  -->
<svg version="1.1" id="Layer_1" xmlns="http://www.w3.org/2000/svg" xmlns:xlink="http://www.w3.org/1999/xlink" x="0px" y="0px"
	 viewBox="0 0 348.5 345.7" style="enable-background:new 0 0 348.5 345.7;" xml:space="preserve">
<style type="text/css">
	.st0{fill:#FFFFFF;}
</style>
<g id="Layer_2_00000035515286761257423340000008759094936653947839_">
	<g id="Layer_1-2">
		<g>
			<path class="st0" d="M151.4,342.7H29.3C10.7,342.7,0,332,0,313.3V109.9c0-3.9,3.1-7,7-7s7,3.1,7,7v203.5c0,11,4.3,15.3,15.3,15.3
				h122.1c3.9,0,7,3.1,7,7S155.3,342.7,151.4,342.7z"/>
		</g>
		<g>
			<path class="st0" d="M254.7,75.8c-3.9,0-7-3.1-7-7V29.3c0-12.2-3.2-15.3-15.3-15.3H111.8c-3.9,0-7-3.1-7-7s3.1-7,7-7h120.5
				c20,0,29.3,9.3,29.3,29.3v39.4C261.7,72.6,258.5,75.8,254.7,75.8z"/>
		</g>
		<g>
			<path class="st0" d="M65.1,94.4H7c-2.8,0-5.4-1.7-6.5-4.3S0,84.5,2.1,82.5L82.5,2c2-2,5-2.6,7.6-1.5s4.3,3.6,4.3,6.5v58.1
				C94.4,84,84,94.4,65.1,94.4z M23.9,80.4h41.2c11.2,0,15.4-4.2,15.4-15.3V23.9L23.9,80.4z"/>
		</g>
		<g>
			<path class="st0" d="M212.2,80.1h-77.9c-3.9,0-7-3.1-7-7s3.1-7,7-7h77.9c3.9,0,7,3.1,7,7S216.1,80.1,212.2,80.1z"/>
		</g>
		<g>
			<path class="st0" d="M169.8,141.6H56.3c-3.9,0-7-3.1-7-7s3.1-7,7-7h113.4c3.9,0,7,3.1,7,7S173.6,141.6,169.8,141.6z"/>
		</g>
		<g>
			<path class="st0" d="M138.9,174.6H56.3c-3.9,0-7-3.1-7-7s3.1-7,7-7h82.6c3.9,0,7,3.1,7,7S142.8,174.6,138.9,174.6z"/>
		</g>
		<g>
			<path class="st0" d="M98.1,207.5H56.3c-3.9,0-7-3.1-7-7s3.1-7,7-7h41.8c3.9,0,7,3.1,7,7S102,207.5,98.1,207.5z"/>
		</g>
		<g>
			<path class="st0" d="M324.4,345.7H270c-1.6,0-3.1-0.5-4.3-1.5c-4.3-3.4-8.7-10.1-8.9-16.3c-0.2-7.2,3.5-11.6,6.4-15.3
				c3-3.7,5.3-6.6,5.3-13.1c0-10.9-8.9-19.8-19.8-19.8c-11.6,0-19.8,8.1-19.8,19.8c0,6.5,2.6,9.5,6,13.2c3.1,3.5,7,7.8,7.2,14.7
				c0.4,7.9-4.6,15.3-12.1,17.8c-0.7,0.3-1.5,0.4-2.3,0.4h-39.2c-11.7,0-21.3-9.6-21.3-21.3v-45.1c-1-1.8-2.9-2.9-5-2.8
				c-0.1,0-0.1,0-0.2,0c-2.2,0.1-3.7,1.2-7.2,4.4c-5,4.5-11.9,10.6-25,10.6c-21.6,0-37.4-15.7-37.4-37.3c0-20.6,16.8-37.4,37.4-37.4
				c12.7,0,19.4,5.4,24.2,9.3c3.4,2.8,5,3.9,7.6,3.9c1.2,0,3.7-1.3,5.6-2.8V180c0-8.3,8-16.5,16.1-16.5h49.4c1.8-1,2.9-2.9,2.8-5
				c0-0.1,0-0.1,0-0.2c-0.1-2.2-1.2-3.7-4.4-7.2c-4.5-5-10.6-11.9-10.6-25c0-21.6,15.7-37.4,37.4-37.4c10,0,19.4,3.9,26.4,10.9
				c7.1,7.1,10.9,16.4,10.9,26.4c0,12.7-5.4,19.3-9.3,24.2c-2.8,3.4-4,5-3.9,7.6c0,1.2,1.3,3.7,2.8,5.6h41.5
				c10,0,22.1,8.6,22.1,19.2v38.7c0,0.8-0.1,1.5-0.4,2.3c-2.6,7.5-9.9,12.5-17.8,12.1c-6.9-0.2-11.2-4.1-14.7-7.2
				c-3.7-3.4-6.7-6-13.2-6c-11.6,0-19.8,8.1-19.8,19.8c0,10.9,8.9,19.8,19.8,19.8c6.5,0,9.4-2.3,13.1-5.3c3.6-2.9,8.1-6.5,15.3-6.4
				c6.3,0.2,12.9,4.6,16.3,8.9c1,1.2,1.5,2.8,1.5,4.3v60.1C348.5,335.5,335.2,345.7,324.4,345.7z M272.8,331.7h51.5
				c4.5,0,10.1-5,10.1-8v-57.3c-1.5-1.2-3.3-2-4.1-2.1c-1.9,0-3,0.8-6.2,3.3c-4.4,3.5-10.4,8.4-21.9,8.4
				c-18.6,0-33.8-15.1-33.8-33.8c0-19.6,14.2-33.8,33.8-33.8c11.9,0,18.1,5.5,22.6,9.6c2.9,2.6,4.2,3.6,5.8,3.7c0.1,0,0.1,0,0.2,0
				c1.4,0.1,2.8-0.7,3.6-1.9v-37.2c0-1.5-4.4-5.2-8.1-5.2H282c-1.6,0-3.1-0.5-4.3-1.5c-4.6-3.6-9.5-11.1-9.7-17.8
				c-0.2-7.8,3.8-12.7,7-16.7c3.3-4.1,6.2-7.7,6.2-15.5c0-6.2-2.4-12.1-6.8-16.5s-10.3-6.8-16.5-6.8c-13.8,0-23.4,9.6-23.4,23.4
				c0,7.8,3.3,11.4,7,15.6c3.4,3.9,7.7,8.6,8,16.1c0.4,8.6-4.9,16.5-13.1,19.3c-0.7,0.2-1.5,0.4-2.3,0.4h-50.7
				c-0.8,0.3-2.1,1.8-2.2,2.6v49.9c0,1.6-0.5,3.1-1.5,4.3c-3.6,4.6-11.1,9.5-17.8,9.7c-7.8,0.1-12.7-3.8-16.7-7
				c-4.1-3.3-7.7-6.2-15.5-6.2c-12.9,0-23.4,10.5-23.4,23.4c0,13.7,9.6,23.3,23.4,23.3c7.8,0,11.4-3.3,15.6-7
				c3.9-3.4,8.6-7.7,16.1-8c8.6-0.4,16.5,5,19.3,13.1c0.3,0.7,0.4,1.5,0.4,2.3v46.5c0,4,3.3,7.3,7.4,7.3h37.7
				c1.2-0.7,1.9-2.1,1.9-3.6c0-0.1,0-0.1,0-0.2c0-1.6-1-2.9-3.7-5.8c-4-4.5-9.6-10.7-9.6-22.6c0-19.6,14.2-33.8,33.8-33.8
				c18.6,0,33.8,15.1,33.8,33.7c0,11.5-4.9,17.5-8.4,21.9c-2.5,3.1-3.3,4.3-3.3,6.2C270.8,328.4,271.7,330.2,272.8,331.7z"/>
		</g>
	</g>
</g>
</svg>
