<?xml version="1.0" encoding="utf-8"?>
<!-- Generator: Adobe Illustrator 27.3.1, SVG Export Plug-In . SVG Version: 6.00 Build 0)  -->
<svg version="1.1" id="Layer_1" xmlns="http://www.w3.org/2000/svg" xmlns:xlink="http://www.w3.org/1999/xlink" x="0px" y="0px"
	 viewBox="0 0 349.8 349.8" style="enable-background:new 0 0 349.8 349.8;" xml:space="preserve">
<style type="text/css">
	.st0{fill:#FFFFFF;}
</style>
<g>
	<path class="st0" d="M0,42.5c1.7-6.9,4.4-13.1,10.1-17.7c5.2-4.2,11.1-6.1,17.7-6.2c8.8-0.1,17.5-0.1,26.3,0c4.9,0,8.1,2.9,8,6.9
		c-0.1,3.9-3.2,6.7-7.9,6.7c-8.5,0.1-17.1,0-25.6,0c-9.3,0-14.9,5.6-14.9,14.9c0,29.3,0,58.5,0,87.8c0,9.1,5.6,14.8,14.7,14.8
		c34.5,0,69,0,103.5-0.1c1.2,0,3-0.7,3.6-1.6c9.3-15.2,21.9-26.6,37.8-34.6c0.2-0.1,0.3-0.3,0.8-0.7c-4.1-7.9-8.2-15.8-12.5-24.2
		c-1.1,2.2-2,3.9-2.9,5.7c-2.5,5.2-5.1,10.4-7.5,15.7c-1.4,3-3.2,5.3-6.7,5.4c-3.7,0.1-5.6-2.3-7.2-5.4c-5.4-10.6-11-21.2-16.4-31.8
		c-0.4-0.7-0.8-1.4-1.1-2.1c-1.4-3.6-0.2-7.2,2.8-8.9c3.3-1.8,7.1-0.9,9.1,2.7c2.7,4.7,5.1,9.6,7.6,14.5c1.5,2.8,2.9,5.6,4.6,8.9
		c2.9-5.9,5.5-11.4,8.2-16.9c0.8-1.7,1.7-3.5,2.5-5.2c1.3-2.8,3.3-4.7,6.5-4.8c3.2-0.1,5.2,1.8,6.7,4.5c3.2,6.3,6.5,12.5,9.7,18.8
		c0.5,1,1.1,2,1.8,3.4c0.7-1.2,1.2-2.1,1.7-3c3.1-6.4,6.2-12.9,9.3-19.4c1.5-3,3.9-4.8,7.4-4.2c3.2,0.6,5.4,2.7,5.6,6
		c0.1,1.8-0.6,3.8-1.4,5.5c-4,8.6-8.2,17.2-12.4,25.8c-0.5,1.1-1,2.2-1.8,4c12.2-3.1,24.1-4.2,36.8-2.3c-1.8-3.4-3.2-6.2-4.6-9
		c-3.3-6.4-6.6-12.7-9.9-19.1c-1.5-2.9-1.9-5.9,0.3-8.6c3.2-4,8.8-3.1,11.5,1.9c3.4,6.2,6.5,12.5,9.7,18.8c0.6,1.1,1.2,2.1,2.1,3.7
		c3.3-6.9,6.5-13.3,9.5-19.7c1.6-3.4,3.1-7.1,7.8-7.1c4.5,0,6,3.5,7.7,6.8c3.3,6.5,6.7,13,10.5,20.2c3.4-7.2,6.6-13.7,9.7-20.2
		c0.7-1.4,1.4-2.9,2.4-4.1c2-2.6,5.1-3.3,7.9-2c2.9,1.3,4.5,4.4,3.8,7.6c-0.2,1.1-0.7,2.2-1.2,3.2c-5.2,10.8-10.4,21.5-15.5,32.3
		c-1.4,3-3.3,5.3-6.8,5.4c-3.5,0.1-5.5-2.2-7-5.1c-3.1-6.2-6.4-12.3-9.6-18.5c-0.5-1-1.1-1.9-1.8-3.3c-3.5,7.2-6.7,13.9-9.9,20.5
		c5.7,2.9,11.3,5.4,16.5,8.5c12.4,7.3,22.3,17.3,29.7,29.6c1.2,1.9,2.4,2.6,4.6,2.5c9.6-0.1,19.1,0,28.7-0.1
		c9.9,0,15.3-5.5,15.3-15.5c0-28.8,0-57.6,0-86.4c0-10.2-5.4-15.6-15.6-15.6c-67.5,0-135,0-202.6,0c-1.4,0-2.8,0.1-4.1-0.2
		c-3.4-0.6-5.8-3.3-5.9-6.5c-0.1-3.3,2.4-6.2,6-6.8c1.2-0.2,2.5-0.1,3.7-0.1c67.3,0,134.6,0.1,201.9-0.1
		c15.3-0.1,27.3,8.9,29.9,23.4c0,0.2,0.2,0.4,0.3,0.6c0,32.3,0,64.7,0,97c-0.2,0.5-0.4,1-0.6,1.6c-1.8,8.8-6.5,15.6-14.8,19.2
		c-4.2,1.9-9.1,2.7-13.8,3c-8.2,0.5-16.5,0.1-25,0.1c11.4,39.2,2.1,72.2-28,99.3c17.5,17.6,34.9,34.9,52.3,52.3
		c0.2,0.2,0.5,0.5,0.8,0.7c5.7,4.4,13.8,1.4,15.2-5.6c0.7-3.7-0.7-6.6-3.3-9.2c-6.5-6.5-13-13-19.6-19.5c-2.4-2.4-3.9-5.1-2.4-8.6
		c2-4.7,7.5-5.5,11.6-1.5c5.4,5.2,10.5,10.7,16,15.9c5.3,5,9.9,10.3,11.5,17.7c0,2.3,0,4.6,0,6.8c-1.6,5.8-4.1,11-9,14.9
		c-8.1,6.4-20.2,6.5-28.2,0.1c-1.6-1.3-3.1-2.7-4.5-4.1c-16.6-16.6-33.2-33.1-49.7-49.8c-1.7-1.7-2.9-2-5.1-0.8
		c-48.9,26-110,0.8-126.2-52.2c-5.4-17.5-5.4-35.2,0.1-52.8c0.3-0.9,0.5-1.7,0.7-2.6c0.1-0.2,0-0.4-0.1-0.9c-1.2,0-2.4,0-3.7,0
		c-30.4,0-60.8-0.4-91.2,0.2c-16.1,0.3-29.2-6.5-32.9-24.1C0,107.1,0,74.8,0,42.5z M286.9,193.5c0.1-41.3-33.8-75.2-75.2-75.2
		c-41.2,0-74.9,33.6-75.1,74.9c-0.2,41.3,33.6,75.2,75,75.4C252.9,268.7,286.9,234.9,286.9,193.5z"/>
	<path class="st0" d="M71.7,88.5c-3.6,7.5-7,14.3-10.2,21.2c-1.4,3-3.2,5.6-6.9,5.8c-3.9,0.1-5.8-2.5-7.4-5.6
		C41.9,99.2,36.2,88.7,30.9,78c-1-2.1-1.5-4.8-1.1-7.1c0.5-2.8,3-4.2,5.8-4.4c3-0.2,5.3,1.4,6.6,4c3.3,6.2,6.5,12.5,9.7,18.8
		c0.6,1.2,1.3,2.4,2.2,4c3.2-6.7,6.3-13,9.3-19.2c0.5-1.1,1.1-2.3,1.6-3.4c1.3-2.5,3.2-4.1,6.1-4.2c3-0.1,5.2,1.5,6.5,4.1
		c3.4,6.4,6.7,12.9,10.1,19.4c0.5,1,1.1,1.9,1.9,3.3c3.7-7.6,7.1-14.7,10.5-21.8c1.9-3.9,4.8-5.6,8-4.8c4.7,1.1,6.6,5.6,4.3,10.5
		c-3.9,8.3-8,16.6-11.9,24.9c-1.5,3.1-2.9,6.2-4.4,9.2c-1.2,2.5-3.2,4.1-6.1,4.2c-3.1,0.1-5.2-1.5-6.5-4.1
		C79.7,104,76,96.7,71.7,88.5z"/>
	<path class="st0" d="M86.3,18.6c3.6,0.2,6.7,3.5,6.5,7c-0.2,3.6-3.5,6.7-7,6.5c-3.6-0.2-6.7-3.5-6.5-7
		C79.5,21.5,82.8,18.4,86.3,18.6z"/>
	<path class="st0" d="M300.7,265.9c-3.7,0-6.8-3.1-6.8-6.7c0-3.5,3.2-6.8,6.8-6.8c3.6,0,6.8,3.1,6.8,6.7
		C307.5,262.8,304.4,265.9,300.7,265.9z"/>
	<path class="st0" d="M271.9,193.3c0.1,33.1-27.1,60.3-60.2,60.2c-33-0.1-60-27-60-60c-0.1-33.1,27.1-60.3,60.2-60.2
		C244.8,133.4,271.8,160.4,271.9,193.3z M258.2,193.4c0-25.6-21-46.5-46.6-46.4c-25.4,0.1-46.3,20.9-46.3,46.3
		c-0.1,25.6,20.8,46.6,46.4,46.6C237.3,239.9,258.3,219,258.2,193.4z"/>
	<path class="st0" d="M242.5,193c0,3.9-2.7,6.9-6.3,7.2c-3.8,0.3-6.8-2.5-7.3-6.9c-1.1-9.4-6.2-15.2-14.4-16.7
		c-1.1-0.2-2.3-0.2-3.4-0.4c-3.9-0.7-6.5-3.9-6-7.4c0.4-3.6,3.5-6.1,7.4-6.1C228.5,162.9,242.6,177.1,242.5,193z"/>
</g>
</svg>
