<?xml version="1.0" encoding="utf-8"?>
<!-- Generator: Adobe Illustrator 27.3.1, SVG Export Plug-In . SVG Version: 6.00 Build 0)  -->
<svg version="1.1" id="Layer_1" xmlns="http://www.w3.org/2000/svg" xmlns:xlink="http://www.w3.org/1999/xlink" x="0px" y="0px"
	 viewBox="0 0 349.8 349.8" style="enable-background:new 0 0 349.8 349.8;" xml:space="preserve">
<style type="text/css">
	.st0{fill:#FFFFFF;stroke:#FFFFFF;stroke-width:0.15;stroke-miterlimit:10;}
</style>
<g>
	<path class="st0" d="M349.8,102.5c-8.5,8.6-17,17.3-25.7,25.9c-2.3,2.3-5.3,2.2-7.7-0.1c-8.1-7.9-16.1-15.8-24-23.8
		c-2.4-2.4-2.2-5.4,0.2-7.9c2.1-2.2,4.3-4.4,6.4-6.6c-49.2-37.7-122.2-39.3-173.5-2.7c5.3,12.7,4.2,24.6-6.4,34.2
		c-9.4,8.5-20.4,9.1-31.8,4c-35,47.4-37.1,121.8,2.9,174c2-2.2,3.9-4.5,6-6.6c2.9-2.8,5.8-2.8,8.7,0.1c7.7,7.6,15.3,15.3,22.8,23
		c2.9,2.9,2.9,5.8,0,8.7c-7.6,7.7-15.3,15.3-23,22.9c-3,2.9-5.7,3-8.7,0.1c-7.8-7.7-15.5-15.4-23.2-23.2c-2.8-2.8-2.7-5.6,0-8.4
		c2.9-2.9,5.9-5.6,8.8-8.3c-35.2-50.5-41.6-103.8-20.3-161.3c-2.5,2.7-4.9,5.6-7.5,8.2c-6.6,6.6-13.1,13.3-19.9,19.7
		c-1.9,1.8-2.3,3.3-1.6,5.9c2.5,8.9-3,18.2-11.8,20.4c-9.2,2.3-18.2-3.1-20.5-12.3c-2.2-8.7,3.1-18,11.9-20c3.1-0.7,6.5,0.2,9.7,0.2
		c1.1,0,2.6,0.1,3.2-0.6c17.3-17.2,34.4-34.4,51.8-51.9c-4-6.7-5.7-13.9-3.9-21.7c1.3-5.6,4-10.3,8.2-14.3
		c9.2-8.7,20.8-9.7,34.9-3.1c0.6-0.6,1.3-1.1,1.9-1.8c16.3-16.3,32.7-32.7,48.9-49.1c0.9-0.9,1.7-2.8,1.4-3.9
		c-2.7-10,1.5-18.3,11.2-21.7c0.4-0.1,0.8-0.4,1.2-0.6c2.3,0,4.6,0,6.8,0c0.3,0.2,0.6,0.4,0.9,0.5c9.6,3.4,14.4,11.8,11.8,20.8
		c-2.7,9.2-11.4,13.7-21.7,11.3c-1.1-0.3-2.8,0.5-3.6,1.3c-8.9,8.7-17.8,17.6-26.6,26.4c-0.6,0.6-1,1.2-1.7,2
		c57.1-22,110.5-15.5,160.8,19.6c2.6-2.8,5.2-5.6,7.9-8.4c3.3-3.3,6-3.3,9.4,0c5.8,5.8,11.6,11.5,17.4,17.4c2.5,2.6,4.9,5.3,7.3,8
		C349.8,100.2,349.8,101.3,349.8,102.5z M117.7,100.8c0-9.5-7.6-17.3-17-17.3c-9.3,0-17.2,7.9-17.2,17.2c0,9.3,7.6,16.9,16.9,17
		C110.1,117.8,117.7,110.3,117.7,100.8z M85.3,320.2c5.1,5.1,10.3,10.4,15.1,15.2c5.2-5.2,10.5-10.5,15.4-15.4
		c-5-5-10.2-10.2-15.2-15.2C95.6,309.9,90.3,315.1,85.3,320.2z M305.1,100.2c5.3,5.3,10.5,10.5,15.2,15.2c5-5,10.3-10.2,15-14.9
		c-5-5-10.2-10.2-15.3-15.3C315.2,90.2,310,95.3,305.1,100.2z M190.3,16.9c0.1-3.2-2.5-5.9-5.7-5.9c-3.1,0-5.6,2.4-5.8,5.5
		c-0.2,3.3,2.3,6,5.5,6.1C187.5,22.7,190.2,20.1,190.3,16.9z M17.3,189.9c3.1-0.1,5.3-2.4,5.3-5.5c-0.1-3.3-2.7-5.7-6.1-5.6
		c-3.1,0.1-5.1,2.2-5.1,5.3C11.5,187.3,14.1,189.9,17.3,189.9z"/>
	<path class="st0" d="M349.8,260.9c-1.1,1.3-2.1,2.7-3.3,3.9c-27.1,27.1-54.2,54.3-81.4,81.4c-0.4,0.4-0.8,0.8-1.2,1.2
		c-3.8,3.6-7.5,3.1-9.8-1.6c-5.4-10.7-10.7-21.6-16.3-32.3c-0.8-1.5-2.4-3-4-3.7c-18.1-7.1-36.2-14-54.4-20.9
		c-3-1.1-4.9-2.8-6.1-5.8c-18.3-45.9-36.6-91.8-55.1-137.7c-1.5-3.8-1-6.6,2-9.4c5.6-5.3,11-10.8,16.4-16.4c2.4-2.5,4.9-2.9,8-1.6
		c46.3,18.5,92.6,37,139,55.5c2.8,1.1,4.2,3.1,5.3,5.8c6.8,17.9,13.8,35.8,20.6,53.8c0.9,2.4,2.2,3.9,4.5,5.1
		c10.3,5,20.6,10.1,30.8,15.4c1.8,0.9,3.3,2.6,4.9,4C349.8,258.6,349.8,259.8,349.8,260.9z M131.9,140.1c-2.1,1.3-3,2.6-1.9,5.3
		c17.5,43.5,34.9,87.1,52.5,130.6c0.6,1.4,2.1,3,3.6,3.5c16.7,6.6,33.5,12.9,50.2,19.5c2.2,0.9,3.6,0.6,5.3-1.1
		c18.8-18.9,37.6-37.7,56.5-56.5c1.7-1.7,2.1-3,1.2-5.3c-6.4-16.3-12.7-32.6-18.9-49c-1.1-2.8-2.6-4.4-5.4-5.5
		c-43-17.1-85.9-34.2-128.8-51.5c-2.9-1.2-4.7-1-5.8,1.4c23.5,23.5,46.9,46.9,70.3,70.3c17.9-11,35.5-3.4,43.5,7.1
		c9.5,12.6,8.9,29.7-1.8,41.4c-10.3,11.4-27.7,13.7-40.8,5.5c-6.6-4.2-11.2-10-13.5-17.4c-3.1-10.1-1.4-19.5,4-28
		C178.7,186.9,155.3,163.5,131.9,140.1z M260.6,334.3c24.7-24.7,49.2-49.1,73.7-73.7c-8.6-4.3-17.5-8.8-26.2-13.1
		c-20.3,20.2-40.4,40.3-60.7,60.6C251.8,316.7,256.2,325.6,260.6,334.3z M207.6,228.8c0,11.7,9.6,21.3,21.3,21.2
		c11.5-0.1,21-9.6,21.1-21.2c0.1-11.7-9.5-21.3-21.2-21.2C216.9,207.5,207.5,216.9,207.6,228.8z"/>
	<path class="st0" d="M190.3,16.9c-0.1,3.2-2.8,5.8-6,5.7c-3.2-0.1-5.7-2.8-5.5-6.1c0.1-3.1,2.7-5.5,5.8-5.5
		C187.8,11,190.4,13.7,190.3,16.9z"/>
	<path class="st0" d="M17.3,189.9c-3.2,0.1-5.9-2.5-5.8-5.8c0-3.1,2-5.2,5.1-5.3c3.3-0.1,6,2.3,6.1,5.6
		C22.7,187.4,20.4,189.8,17.3,189.9z"/>
</g>
</svg>
