<?xml version="1.0" encoding="utf-8"?>
<!-- Generator: Adobe Illustrator 27.3.1, SVG Export Plug-In . SVG Version: 6.00 Build 0)  -->
<svg version="1.1" id="Layer_1" xmlns="http://www.w3.org/2000/svg" xmlns:xlink="http://www.w3.org/1999/xlink" x="0px" y="0px"
	 viewBox="0 0 349.8 349.8" style="enable-background:new 0 0 349.8 349.8;" xml:space="preserve">
<style type="text/css">
	.st0{fill:#FFFFFF;}
</style>
<g>
	<path class="st0" d="M10.8,240.4c0-3.8,0-7.2,0-10.8c1.7,0,3.3,0,5.3,0c0-1.4,0-2.6,0-3.8c0-11,0-22.1,0-33.1
		c0-4.9,1.9-6.8,6.8-6.8c12,0,24.1-0.1,36.1,0c2,0,3-0.6,3.9-2.4c8.5-16.3,21.3-28.2,38.3-35.3c1.6-0.7,2.2-1.5,2.2-3.3
		c-0.1-5.9-0.1-11.8,0-17.8c0-5,1.9-6.9,6.7-6.9c13.6,0,27.3,0,40.9,0c5,0,6.9,1.9,6.9,7.1c0,5.6,0.1,11.2,0,16.7
		c-0.1,2.2,0.5,3.3,2.7,4.3c25.2,11.5,40.6,30.8,45.4,58.2c1.1,6.3,0.5,12.9,0.6,19.4c0,1.1-0.1,2.2-0.2,3.5c2,0,3.8,0,6.1,0
		c0-1.2,0-2.5,0-3.8c0-45.2,0-90.4,0-135.6c0-6.5,1.5-8,8.1-8c13,0,25.9,0,38.9,0c5.9,0,7.6,1.7,7.6,7.4c0,17.4,0,34.8,0,52.5
		c-3.6,0-7.1,0-10.8,0c0-16.2,0-32.3,0-48.7c-11,0-21.7,0-32.6,0c0,45.3,0,90.7,0,136.2c10.7,0,21.3,0,32.4,0c0-23.4,0-46.9,0-70.7
		c3.8,0,7.3,0,11,0c0,23.5,0,46.9,0,70.6c3.7,0,7.1,0,11,0c0-1.3,0-2.6,0-3.9c0-39.4,0-78.8,0-118.2c0-7.6,1.2-8.8,8.9-8.8
		c12.2,0,24.3,0,36.5,0c8.1,0,9.1,1.1,9.1,9.3c0,39.2,0,78.3,0,117.5c0,1.3,0,2.7,0,4.3c1.9,0,3.4,0,5.2,0c0,3.7,0,7.1,0,10.9
		c-44.5,0-89,0-133.7,0c-7.7,23.1-22.2,39.9-44.6,49.1c-22.4,9.2-44.4,7.3-66.3-4.1c-2.2,2.4-4.6,4.9-6.9,7.4
		c-3.2,3.5-7.1,5.1-11.9,4.6c-1.1-0.1-2.7,0.9-3.4,1.8c-7.7,11.4-15.2,22.9-23,34.3c-5.4,7.9-13,11.8-22.5,10.5
		c-9.5-1.2-16-6.7-19.1-15.9c-3.5-10.1,0.4-20.6,9.9-27c11-7.4,22.1-14.9,33.2-22.1c2-1.3,3-2.6,2.6-5.1c-0.5-4,1.1-7.4,3.9-10.1
		c2.6-2.6,5.2-5.1,7.8-7.5c-2.3-5.4-4.4-10.5-6.7-15.8C41.9,240.4,26.4,240.4,10.8,240.4z M130.6,284.2c36.1,0,65.5-29.4,65.5-65.6
		c0-36.2-29.4-65.6-65.4-65.6c-36.1,0-65.5,29.4-65.5,65.5C65.1,254.7,94.5,284.1,130.6,284.2z M289.1,109.4c0,40.2,0,80,0,119.8
		c11,0,21.7,0,32.3,0c0-40.1,0-79.9,0-119.8C310.6,109.4,300,109.4,289.1,109.4z M29.3,333.4c3.4-0.2,6.9-1.9,9.4-5.6
		c7.9-11.8,15.7-23.7,23.7-35.4c1.6-2.4-0.2-3.2-1.3-4.4c-1.2-1.4-2.3-2.2-4.2-0.8c-4.1,3-8.5,5.7-12.7,8.6
		c-7.6,5.1-15.2,10-22.7,15.2c-4.8,3.3-6.6,8.8-4.8,14.1C18.4,330,23.1,333.4,29.3,333.4z M57.3,197c-10.4,0-20.3,0-30.2,0
		c0,10.9,0,21.6,0,32.4c9.3,0,18.5,0,28,0C53.3,218.3,54.4,207.6,57.3,197z M146.9,131.3c-11,0-21.7,0-32.4,0c0,4.2,0,8.2,0,12.5
		c10.9-2.4,21.6-2.3,32.4,0C146.9,139.4,146.9,135.5,146.9,131.3z M69,265.8c-1.3,1.5-3.4,3.4-5,5.7c-0.6,0.8-0.5,2.9,0.1,3.7
		c3.3,3.6,6.7,7,10.3,10.4c0.6,0.6,2.3,0.9,2.8,0.5c2.5-2,4.9-4.2,6.4-5.6C78.4,275.3,74,270.8,69,265.8z"/>
	<path class="st0" d="M130.3,75.6c8.8,4.4,17.5,8.8,26.3,13.1c0.6,0.3,2,0,2.5-0.5c6.8-6.1,14.4-7.8,23.1-4.8c0.8,0.3,2.4-0.2,3-0.9
		c11.8-13.6,23.4-27.3,35.2-40.9c1.6-1.8,0.8-2.9,0-4.5c-3.7-7.4-3.4-14.8,1.1-21.7c4.6-7,11.3-10.4,19.7-10
		c9.4,0.5,17.6,7.5,19.7,16.6c0.4,1.5,0.6,3.1,0.9,5c7.4,1.9,15,3.8,22.6,5.5c0.9,0.2,2.5-0.9,3.3-1.9c5.2-6.5,11.9-9.9,20.3-8.8
		c8.6,1.1,14.6,6,17.7,14.1c4.4,11.8-2.3,25-14.4,28.5c-12.2,3.5-24.9-4-27.2-16.5c-0.7-3.7-2.1-5-5.6-5.7
		c-5.8-1.1-11.5-2.8-17.2-4.3c-1.7-0.5-2.8-0.2-3.9,1.5c-6.1,8.5-15.2,11.2-25.3,8.1c-1-0.3-2.7,0.1-3.3,0.8
		c-11.8,13.6-23.4,27.3-35.2,40.9c-1.2,1.4-1.1,2.3-0.3,3.9c4.6,8.9,3.3,18.6-3.3,25.6c-6.3,6.6-16.1,8.6-24.5,4.9
		c-8.8-3.9-13.8-12.4-12.9-22.3c0.2-1.8-0.3-2.6-1.9-3.4c-8.5-4.1-16.9-8.4-24.5-12.2c-4.5,2.3-8.3,5.1-12.6,6.1
		c-3.6,0.9-7.8-0.2-11.7-0.2c-1.2,0-2.9,0.3-3.6,1.1c-12.1,14.9-24,30-36.1,45c-1.5,1.9-0.8,3.1,0.1,4.8c4.2,7.8,3.8,15.6-1.3,22.9
		c-5,7.1-12.1,10.3-20.7,9.1c-9-1.3-15.2-6.5-17.9-15.3c-2.5-8.2-0.6-15.6,5.4-21.7c6-6.1,13.4-8,21.6-5.5c2.4,0.7,3.4,0.1,4.8-1.6
		c11.7-14.7,23.4-29.4,35.1-44c1-1.3,2.1-2.3,0.9-4.4C85,73,86.2,63.2,92.9,56c6.4-6.8,16.2-8.8,24.7-5c8.9,4,13.8,12.9,12.7,23.1
		C130.4,74.5,130.3,74.8,130.3,75.6z M239.9,38.2c5.9-0.1,10.8-5.1,10.8-11c0-5.9-5-10.8-10.9-10.9c-6.1,0-11,5.1-10.9,11.2
		C229,33.4,234,38.2,239.9,38.2z M316.1,43.8c0.1-5.9-4.8-10.9-10.7-11c-5.9-0.1-11,4.7-11.1,10.6c-0.1,6.1,4.8,11.2,10.9,11.2
		C311.1,54.6,316.1,49.7,316.1,43.8z M119.7,70.9c0-5.9-4.9-10.9-10.9-10.9c-5.9,0-10.9,4.8-10.9,10.8c-0.1,6.1,5,11.1,11,11.1
		C114.8,81.8,119.7,76.9,119.7,70.9z M185.2,103.8c0-5.9-4.8-10.9-10.8-11c-5.9-0.1-10.9,4.7-11.1,10.7c-0.1,6.1,4.9,11.2,10.9,11.2
		C180.2,114.7,185.1,109.8,185.2,103.8z M54.2,152.9c0-5.9-4.9-10.9-10.9-10.9c-5.9,0-10.9,4.9-10.9,10.8c-0.1,6.1,5,11.1,11,11
		C49.4,163.8,54.3,158.9,54.2,152.9z"/>
	<path class="st0" d="M76.1,218.4c0.1-30.2,24.7-54.6,54.9-54.5c29.9,0.1,54.3,24.7,54.2,54.8c-0.1,30.1-24.7,54.6-54.9,54.5
		C100.4,273.1,76,248.5,76.1,218.4z M152.2,229.4c0.1-0.6,0.3-0.9,0.3-1.2c0-15.1,0.1-30.3-0.1-45.4c0-1.1-1.2-2.6-2.2-3.2
		c-12.8-6.4-25.7-6.3-38.7-0.3c-2.1,1-2.7,2.2-2.7,4.4c0.1,14.2,0,28.5,0.1,42.7c0,1,0.1,1.9,0.2,3
		C123.5,229.4,137.7,229.4,152.2,229.4z M168.3,240.7c-25.4,0-50.1,0-75.3,0c9,13.8,21.2,21.4,37.3,21.5
		C146.7,262.3,159.1,254.8,168.3,240.7z M97.7,189.8c-9.6,12.4-12.9,25.2-9.3,39.5c3.3,0,6.3,0,9.3,0
		C97.7,216.4,97.7,203.6,97.7,189.8z M163.6,190.6c0,13,0,25.8,0,38.8c3.2,0,6.1,0,9,0C176.9,217.5,172.5,198.8,163.6,190.6z"/>
</g>
</svg>
