<?xml version="1.0" encoding="UTF-8"?>
<svg id="Layer_1" data-name="Layer 1" xmlns="http://www.w3.org/2000/svg" viewBox="0 0 334.44 334.08">
  <defs>
    <style>
      .cls-1 {
        fill: #fff;
      }
    </style>
  </defs>
  <path class="cls-1" d="m64.69,129.4h53.86V54.22h-43.18c-5.3,24.92-25.68,33.2-40.51,32.01C16.85,84.78,2.43,70.71.24,52.34-1.79,35.22,9.21,18.43,26.2,12.72c16.55-5.56,35.32,1.53,44.2,17.03-2.94,1.71-5.89,3.42-9.1,5.28-4.89-7.56-11.64-12.19-20.51-13.26-5.97-.72-11.61.59-16.79,3.71-10.88,6.55-15.71,19.53-11.76,31.53,3.92,11.89,15.91,19.78,28.22,18.39,7.86-.88,14.24-4.5,19.04-10.85,4.72-6.25,5.71-13.47,5.26-21.25h53.82V.05h3.93c50.55,0,101.11.02,151.66-.05,2.33,0,3.93.68,5.56,2.32,17.5,17.61,35.09,35.12,52.57,52.75,1.11,1.12,2.06,3.01,2.06,4.55.1,76.38.09,152.76.09,229.13,0,.66,0,1.32,0,2.35h-64.57v42.97H10.98v-96.63H.12c0-4.56-.07-8.88.08-13.2.02-.63,1.02-1.37,1.72-1.82,31.08-20.14,62.19-40.25,93.26-60.42,1.64-1.07,2.74-.8,4.2.17,5.33,3.54,10.73,6.97,16.11,10.44.91.58,1.86,1.1,3.07,1.81v-34.02h-43.32c-2.04,11.06-7.49,19.9-16.91,26.07-7.3,4.78-15.39,6.82-24.05,5.94C15.86,170.54,1.46,155.77.17,137.69c-1.29-18.22,10.59-34.79,28.21-39.31,16.48-4.23,35.23,3.62,41.85,17.74-2.94,1.71-5.9,3.44-8.84,5.15-10.55-15.31-26.09-15.44-35.86-10.39-11.42,5.91-17.16,19.1-13.59,31.37,3.63,12.51,15.7,20.82,28.44,19.45,7.86-.85,14.26-4.44,19.07-10.79,4.73-6.25,5.83-13.44,5.25-21.49Zm258.72,150.87V64.92h-10.6v31.93h-172.34V21.55h129v-10.54h-139.85c-.04.82-.1,1.47-.11,2.12,0,55.38,0,110.75-.06,166.13,0,2.01.82,2.99,2.33,3.97,13.31,8.56,26.62,17.13,39.85,25.81,1.8,1.18,3.03,1.07,4.77-.04,6.34-4.05,12.79-7.91,19.18-11.87,6.24-3.87,12.46-3.92,18.72-.06,8.12,5.01,16.24,10.01,24.37,15,1.01.62,2.06,1.17,3.08,1.75,12.56-20.54,34.59-23.28,49.76-15.87,16.39,8,24.73,26.34,19.94,44.09-4.22,15.65-20.57,30.18-41.57,27.1v11.14h53.52ZM151.25,86.08h150.68v-21.37h-32.32v-32.15h-118.36v53.52ZM21.8,323.39h118.35v-54.1h-10.78v32.5h-42.76v-43.08h32.91c-2.43-9.78,1.54-16.35,10.41-21.2H21.8v85.87Zm237.15.04c0-20.03.04-39.68-.11-59.32,0-1.05-1.33-2.43-2.39-3.09-16.21-10.07-32.5-20-48.7-30.08-1.98-1.23-3.36-1.28-5.39-.02-16.09,10.04-32.24,19.99-48.46,29.83-2.08,1.26-2.89,2.52-2.87,4.99.12,18.08.06,36.17.06,54.25v3.38h21.71v-42.75h64.64v42.82h21.51ZM91.68,177.18c-25.39,16.43-50.3,32.54-75.88,49.09h75.88v-49.09Zm37.88,75.06c-.12,4.7,3.45,7.45,6.89,6.32,1.26-.41,2.41-1.18,3.56-1.89,20.75-12.75,41.51-25.48,62.19-38.34,2.14-1.33,3.62-1.25,5.71.05,21.07,13.07,42.21,26.05,63.35,39.03,3.54,2.17,6.79,1.63,8.5-1.27,1.62-2.74.76-5.66-2.51-7.68-22.92-14.14-45.88-28.23-68.81-42.36-2.23-1.37-4.39-1.51-6.64-.12-23.12,14.24-46.27,28.45-69.34,42.78-1.45.9-2.31,2.75-2.89,3.47Zm34.21-35.52c-20.51-13.27-40.65-26.3-61.05-39.5v49.03c.47.11.78.25,1.09.25,14.14.02,28.28.03,42.42,0,.76,0,1.63-.06,2.25-.43,4.99-2.99,9.93-6.05,15.3-9.35Zm19.9,74.65v31.94h42.73v-31.94h-42.73Zm107.65-38.61c8.32-4.89,12.64-17.33,9.84-27.78-3.09-11.54-13.53-19.77-25.4-20.02-10.64-.22-21.69,6.53-24.25,14.98,9.59,5.9,19.14,11.98,28.89,17.72,5.92,3.48,10.39,7.77,10.91,15.1Zm-10.57-233.1v34.12h34.3c-11.47-11.41-22.9-22.78-34.3-34.12ZM97.3,290.98h21.16v-21.15h-21.16v21.15Z"/>
  <path class="cls-1" d="m32.18,138.33c6.23-6.35,11.95-12.16,17.75-18.07,2.73,2.74,5.14,5.16,7.44,7.47-8.42,8.35-16.75,16.62-24.87,24.67-4.48-4.48-9.21-9.21-14.05-14.05,2.16-2.08,4.61-4.46,7.66-7.39,1.9,2.31,3.88,4.71,6.07,7.38Z"/>
  <path class="cls-1" d="m26.44,45.06c1.63,2,3.54,4.33,5.62,6.87,6.12-6.33,11.79-12.18,17.64-18.22,2.77,3.11,5.05,5.67,7.15,8.03-7.92,7.89-16.25,16.18-24.34,24.23-4.32-4.36-9.02-9.1-13.82-13.93,2.03-1.83,4.57-4.12,7.74-6.98Z"/>
  <path class="cls-1" d="m312.71,129.68v10.39h-129v-10.39h129Z"/>
  <path class="cls-1" d="m312.71,151.26v10.38h-129v-10.38h129Z"/>
  <path class="cls-1" d="m205.16,118.44v-10.37h107.43v10.37h-107.43Z"/>
  <path class="cls-1" d="m291.14,172.82v10.39h-107.43v-10.39h107.43Z"/>
  <path class="cls-1" d="m140.55,151.16h31.91v32.05h-31.91v-32.05Zm10.68,21.25h10.43v-10.37h-10.43v10.37Z"/>
  <path class="cls-1" d="m172.47,140.09h-31.94v-31.99h31.94v31.99Zm-21.11-21.35v10.49h10.25v-10.49h-10.25Z"/>
  <path class="cls-1" d="m302.37,172.67h10.25v10.48h-10.25v-10.48Z"/>
  <path class="cls-1" d="m194.06,108.08v10.34h-10.41v-10.34h10.41Z"/>
  <path class="cls-1" d="m32.7,258.87c13.52,0,26.86,0,40.2,0,.76,0,1.53,0,2.48,0v42.97h-42.69v-42.97Zm31.87,32.2v-21.15h-21.17v21.15h21.17Z"/>
  <path class="cls-1" d="m221.18,253.59c-.05,8.8-7.31,16.03-16.12,16.05-8.94.02-16.27-7.34-16.22-16.28.05-8.93,7.49-16.18,16.45-16.04,8.79.13,15.93,7.46,15.88,16.28Zm-16.05-5.48c-2.92-.06-5.41,2.32-5.48,5.25-.06,2.92,2.33,5.42,5.25,5.48,2.91.06,5.42-2.34,5.48-5.26.06-2.92-2.33-5.41-5.25-5.48Z"/>
</svg>