<svg width="24" height="24" viewBox="0 0 24 24" fill="none" xmlns="http://www.w3.org/2000/svg">
<path d="M14.0203 21.9228L6.4043 19.7028V20.9998H2.4043V12.8458H8.7773L16.1353 15.5378V17.1538H21.0003V19.7688L14.0203 21.9228ZM3.4033 19.9998H5.4033V13.8458H3.4033V19.9998ZM13.9683 20.8618L19.9763 19.0308V18.1538H13.0553L9.9503 17.1418L10.2803 16.1848L13.2063 17.1538H15.1353V16.2338L8.6193 13.8458H6.4043V18.6538L13.9683 20.8618ZM19.0003 14.7688V7.76881L13.5003 3.92281L8.0003 7.76981V10.4628H7.0003V7.28781L13.5003 2.65381L20.0003 7.28781V14.7688H19.0003ZM14.0963 8.44281H14.9043V7.63481H14.0963V8.44281ZM12.0963 8.44281H12.9043V7.63481H12.0963V8.44281ZM14.0963 10.4428H14.9043V9.63481H14.0963V10.4428ZM12.0963 10.4428H12.9043V9.63481H12.0963V10.4428Z" fill="black"/>
</svg>
