<?xml version="1.0" encoding="utf-8"?>
<!-- Generator: Adobe Illustrator 27.3.1, SVG Export Plug-In . SVG Version: 6.00 Build 0)  -->
<svg version="1.1" id="Layer_1" xmlns="http://www.w3.org/2000/svg" xmlns:xlink="http://www.w3.org/1999/xlink" x="0px" y="0px"
	 viewBox="0 0 348.5 345.7" style="enable-background:new 0 0 348.5 345.7;" xml:space="preserve">
<style type="text/css">
	.st0{fill:#FFFFFF;}
</style>
<g>
	<path class="st0" d="M184.4,345.7c-6.7,0-13.5,0-20.2,0c-0.7-0.2-1.5-0.5-2.2-0.6c-35.3-2.9-66.2-16.1-92.9-39.3
		c-1.4-1.2-3.5-2-5.3-2c-14.8-0.2-29.6-0.1-44.5-0.1c-8.4,0-14.2-4.3-16.9-12.3c-0.1-0.4-0.4-0.7-0.6-1.1c0-29.5,0-59,0-88.5
		c2-7,6.2-11.8,13.1-13.6c0.4-6.9,0.5-13.4,1.2-19.9c4.6-38.4,20.8-71,48.6-97.8c1.8-1.7,2.4-3.4,2.4-5.9c-0.1-15.1-0.1-30.1,0-45.2
		c0-8.7,5-15.6,13.1-18.5c0.8-0.3,1.6-0.7,2.4-1c61.1,0,122.2,0,183.3,0c12,3.9,16.2,12.3,15.8,24.5c-0.5,13.6-0.2,27.2,0,40.8
		c0,1.5,0.6,3.4,1.7,4.4c32.7,31.8,49.7,70.4,50.2,116.1c0,1.7,0.5,2.5,2.1,3.2c7.6,2.9,11.2,8.4,11.2,16.6c0,26.8,0,53.5,0,80.3
		c0,11-6.9,17.8-17.9,17.9c-14.6,0-29.2,0.1-43.8,0c-2.3,0-4,0.6-5.7,2.1c-22.2,19.5-47.8,32-76.8,37.2
		C196.5,344.2,190.4,344.8,184.4,345.7z M67.1,83.7C42.4,106,22.5,157.3,26.2,188.1c1.3,0,2.6,0,3.9,0c17,0,33.9,0,50.9,0
		c1.2,0,2.5,0,3.7,0.2c2.7,0.5,4.1,2.3,4.2,5c0.1,2.7-1.2,4.5-3.8,5.3c-1.1,0.3-2.2,0.3-3.3,0.3c-20.4,0.1-40.9,0.1-61.3,0.2
		c-6.2,0-7.9,1.6-7.9,8c0,25.9,0,51.8,0,77.6c0,6.5,1.8,8.3,8.1,8.3c34.4,0,68.7,0,103.1,0c6.9,0,8.5-1.7,8.5-8.6
		c0-14.4-0.1-28.8,0.1-43.2c0-1.8,1.3-4.2,2.7-5.3c1.2-0.9,4.2-0.8,5.2,0.1c1.5,1.4,2.6,4,2.7,6c0.2,14.6,0.2,29.3,0.1,43.9
		c0,10.9-7,17.8-18,17.8c-12.5,0-24.9,0-37.4,0c-1,0-2.1,0.1-3.5,0.2c53.1,42.3,131.6,39.8,180.3-0.2c-1.5,0-2.6,0-3.7,0
		c-12.2,0-24.5,0-36.7,0c-11.9,0-18.5-6.6-18.5-18.6c0-14.1,0-28.1,0-42.2c0-1.2,0-2.5,0.2-3.7c0.6-2.7,2.4-4.1,5-4.2
		c2.8,0,4.7,1.4,5.3,4.2c0.3,1.3,0.2,2.7,0.2,4c0,13.8,0,27.7,0,41.5c0,6.3,1.8,8.1,8,8.1c15.2,0,30.3,0,45.5,0c19.7,0,39.3,0,59,0
		c4.9,0,7.2-2,7.2-6.4c0-27.1,0-54.2,0-81.4c0-4.1-2.3-6.3-6.3-6.3c-20.7,0-41.3,0-62-0.1c-1.5,0-3,0-4.3-0.4
		c-2.6-0.8-3.8-2.7-3.7-5.4c0.1-2.5,1.5-4.2,4-4.8c1.3-0.3,2.7-0.2,4-0.2c16.8,0,33.7,0,50.5,0c1.3,0,2.6,0,4.3,0
		c0.4-19.7-3.1-38.3-10.1-56.3c-7-17.9-17.1-33.8-30.6-47.5c-0.4,1.3-0.4,2.4-0.4,3.6c0,12.2,0.1,24.3-0.1,36.5
		c-0.2,9.7-8.3,17.8-17.8,18.3c-4,0.2-6.3-1.4-6.7-4.5c-0.4-3.3,1.6-5.6,5.6-6.2c5.7-0.9,8.2-3.7,8.3-9.5c0.1-6.8,0.1-13.5-0.1-20.3
		c0-1.4-1.1-3.2-2.2-4c-23.5-16.3-47.2-32.5-70.7-48.8c-2.2-1.5-3.6-1.2-5.6,0.1c-21.8,14.7-43.7,29.2-65.5,43.8
		c-15.2,10.2-30.5,20.3-45.7,30.5c-3,2-3.3,3.3-0.5,5.5c1.7,1.4,4.1,2.1,6.3,2.6c3.2,0.8,5.2,2.9,5.1,5.8c-0.2,3.1-2.6,5-6.1,5
		c-9.9-0.1-18.4-8.4-18.6-18.5c-0.2-7.6-0.1-15.3-0.1-23C67.1,95.5,67.1,89.9,67.1,83.7z M77.8,112.6c1.4-0.9,2.2-1.3,3.1-1.9
		c36.2-24.2,72.5-48.4,108.7-72.6c5.2-3.5,5.8-3.5,11.1,0.2c22.1,15.2,44.2,30.4,66.4,45.6c1,0.7,2.1,1.4,3.5,2.3
		c0.1-1.4,0.1-2.2,0.1-3c0-20.8,0-41.6,0-62.4c0-6.8-3.3-10-10.2-10c-57.5,0-115,0-172.5,0c-7,0-10.2,3.3-10.2,10.4
		c0,15.3,0,30.6,0,45.9C77.8,82.1,77.8,97,77.8,112.6z"/>
	<path class="st0" d="M174.2,247.8c-3,0-6.1,0-9.1,0c-4.1-0.1-5.7-1.4-6.5-5.3c-0.8-4.1-1.3-8.2-2.3-12.3c-0.3-1.2-1.5-2.6-2.6-3.2
		c-5.2-3.2-10.6-6.3-15.9-9.2c-1.1-0.6-2.7-1-3.8-0.7c-4,1.2-7.8,2.8-11.7,4.2c-3.9,1.4-6,0.6-8.1-3.1c-3.1-5.2-6.1-10.5-9.1-15.8
		c-2.1-3.8-1.8-5.7,1.5-8.6c3.1-2.7,6.5-5.3,9.5-8.1c0.9-0.8,1.3-2.4,1.3-3.7c0.1-6.2,0.1-12.3,0-18.5c0-1.3-0.5-2.9-1.3-3.7
		c-3.1-2.9-6.5-5.5-9.7-8.3c-3-2.6-3.3-4.6-1.4-8c3.1-5.5,6.2-10.9,9.4-16.4c2-3.4,4.1-4.1,7.9-2.8c3.9,1.4,7.7,3,11.7,4.2
		c1.1,0.3,2.7-0.1,3.8-0.7c5.4-3,10.7-6,15.9-9.2c1.1-0.7,2.3-2,2.6-3.2c1-4.1,1.5-8.4,2.4-12.6c0.7-3.5,2.4-4.9,6.1-5
		c6.3-0.1,12.6,0,18.9,0c3.9,0,5.5,1.4,6.3,5.1c0.9,4.2,1.4,8.4,2.4,12.6c0.3,1.2,1.3,2.4,2.4,3c5.3,3.3,10.7,6.4,16.2,9.4
		c1.1,0.6,2.7,0.9,3.9,0.5c4-1.2,7.8-2.8,11.7-4.2c3.8-1.3,5.8-0.6,7.9,3c3.1,5.3,6.2,10.7,9.2,16.1c2,3.6,1.7,5.6-1.4,8.3
		c-3.1,2.7-6.4,5.3-9.5,8.1c-0.9,0.8-1.4,2.4-1.4,3.6c-0.1,6.3-0.1,12.5,0,18.8c0,1.2,0.6,2.8,1.4,3.6c3,2.8,6.3,5.4,9.5,8.1
		c3.1,2.7,3.5,4.7,1.4,8.3c-3,5.4-6.1,10.7-9.3,16.1c-2.1,3.6-4.1,4.3-8.2,2.9c-3.8-1.3-7.5-2.9-11.4-4.1c-1.2-0.4-2.8-0.1-3.9,0.5
		c-5.5,3-10.9,6.2-16.2,9.4c-1.1,0.6-2.1,1.9-2.4,3c-1,4.2-1.5,8.4-2.4,12.6c-0.8,3.8-2.5,5.1-6.3,5.2
		C180.5,247.8,177.4,247.8,174.2,247.8z M226.9,135.8c-4.5,1.6-8.7,3.1-12.9,4.7c-2.8,1.1-5,0.5-7.1-1.5
		c-5.6-5.4-12.1-9.3-19.6-11.4c-3-0.8-4.5-2.7-5-5.7c-0.7-4.3-1.5-8.6-2.3-13.2c-3.5,0-6.8-0.1-10.2,0.1c-0.6,0-1.5,1.2-1.7,1.9
		c-0.8,3.6-1.5,7.3-2,10.9c-0.4,3.3-2.2,5.1-5.4,6.1c-7,2-13.3,5.5-18.5,10.6c-2.7,2.6-5.3,3.2-8.8,1.8c-3.9-1.6-7.9-2.9-11.9-4.4
		c-2,3.6-3.8,6.8-5.7,10c3.6,3,6.9,5.9,10.3,8.7c2.4,1.9,3.1,4.1,2.4,7.1c-1.9,7.4-1.9,14.9,0,22.4c0.8,3.2-0.1,5.4-2.5,7.4
		c-3.4,2.7-6.7,5.6-10.2,8.5c2,3.4,3.8,6.6,5.8,10c4.2-1.5,8.3-3,12.4-4.6c2.9-1.2,5.4-0.8,7.7,1.4c5.6,5.4,12.2,9.2,19.6,11.3
		c2.8,0.8,4.3,2.6,4.7,5.5c0.7,4.4,1.6,8.8,2.3,13.2c4,0,7.8,0,11.6,0c0.8-4.6,1.6-8.9,2.3-13.2c0.5-2.8,2-4.7,4.8-5.5
		c7.5-2.1,14.1-5.9,19.6-11.3c2.2-2.1,4.5-2.6,7.4-1.5c4.1,1.6,8.4,3.1,12.7,4.6c2-3.4,3.8-6.6,5.7-10c-3.6-3-7-5.9-10.4-8.8
		c-2.2-1.8-3-3.9-2.3-6.8c1.9-7.4,2-14.9,0.1-22.4c-0.9-3.3,0-5.6,2.6-7.7c3.4-2.7,6.7-5.6,10.1-8.5
		C230.6,142.4,228.8,139.3,226.9,135.8z"/>
	<path class="st0" d="M46.8,245.4c0-9.4,0-18.9,0-28.3c0-6,4.1-8.2,9.2-5.1c15.6,9.5,31.3,18.9,46.9,28.4c5.4,3.3,5.4,7.6,0.1,10.9
		c-15.6,9.5-31.2,19-46.9,28.4c-5.3,3.2-9.3,0.9-9.3-5.3C46.7,264.8,46.8,255.1,46.8,245.4z M57.8,225.7c0,13.8,0,26.9,0,40.5
		c11.2-6.8,22-13.4,33.3-20.3C79.8,239,69,232.5,57.8,225.7z"/>
	<path class="st0" d="M278.3,274.8c-11.1,0-22.2,0-33.3,0c-4.2,0-6.7-2-6.7-5.4c0-3.4,2.5-5.4,6.7-5.4c22.2,0,44.5,0,66.7,0
		c4.4,0,6.7,1.8,6.8,5.3c0.1,3.6-2.3,5.5-6.9,5.5C300.6,274.8,289.5,274.8,278.3,274.8z"/>
	<path class="st0" d="M278.7,240.8c10.7,0,21.3,0,32,0c1.2,0,2.5,0,3.7,0.2c2.6,0.5,4.1,2.3,4.2,5c0.1,2.7-1.2,4.5-3.8,5.3
		c-1.3,0.3-2.7,0.3-4,0.3c-21.5,0-43.1,0-64.6,0c-5.1,0-7.7-1.9-7.8-5.4c0-3.6,2.6-5.4,7.7-5.4C256.9,240.7,267.8,240.8,278.7,240.8
		z"/>
	<path class="st0" d="M293.4,228.2c-6.3,0-12.6,0-18.9,0c-4.2,0-6.7-2.1-6.6-5.5c0.1-3.3,2.5-5.3,6.5-5.3c12.6,0,25.2,0,37.7,0
		c4.1,0,6.3,2,6.4,5.4c0,3.4-2.3,5.4-6.3,5.4C306,228.2,299.7,228.2,293.4,228.2z"/>
	<path class="st0" d="M92.3,43.2c0-11.7,9.7-21.5,21.4-21.5c11.7,0.1,21.4,9.9,21.3,21.6c-0.1,11.6-9.6,21.2-21.3,21.3
		C102.1,64.7,92.3,54.9,92.3,43.2z M124.3,43.2c0.1-5.8-4.9-10.8-10.7-10.7c-5.6,0-10.5,4.8-10.5,10.5c-0.1,5.7,4.6,10.6,10.3,10.7
		C119.2,53.9,124.2,49,124.3,43.2z"/>
	<path class="st0" d="M174.2,205.9c-18.1,0-33-15-32.9-33.2c0.1-18.2,15-33,33.2-32.9c18.2,0.1,32.9,14.9,32.8,33.2
		C207.2,191.2,192.4,206,174.2,205.9z M196.5,172.8c0-12.3-10-22.3-22.3-22.2c-12.1,0-22.1,10-22.1,22.1
		c-0.1,12.3,10,22.4,22.2,22.4C186.5,195.1,196.5,185.1,196.5,172.8z"/>
</g>
</svg>
